<?xml version="1.0" standalone="no"?>
<!DOCTYPE svg PUBLIC "-//W3C//DTD SVG 20010904//EN"
 "http://www.w3.org/TR/2001/REC-SVG-20010904/DTD/svg10.dtd">
<svg version="1.0" xmlns="http://www.w3.org/2000/svg"
 width="500.000000pt" height="500.000000pt" viewBox="0 0 500.000000 500.000000"
 preserveAspectRatio="xMidYMid meet">
<metadata>
Created by potrace 1.14, written by Peter Selinger 2001-2017
</metadata>
<g transform="translate(0.000000,500.000000) scale(0.100000,-0.100000)"
fill="#000000" stroke="none">
<path d="M3093 4974 c-142 -31 -275 -105 -370 -208 -68 -72 -104 -130 -138
-219 -12 -34 -41 -91 -62 -127 -87 -142 -137 -317 -137 -480 -1 -95 3 -116 37
-221 20 -64 56 -146 78 -183 l41 -68 -41 -81 c-90 -184 -125 -279 -126 -342 0
-33 4 -70 8 -81 7 -19 0 -26 -60 -55 -37 -18 -71 -35 -74 -36 -4 -2 -3 15 2
39 16 82 10 204 -12 270 -83 247 -364 366 -595 253 -251 -123 -324 -434 -155
-663 37 -50 134 -124 211 -161 30 -14 56 -26 58 -27 2 -1 -9 -19 -23 -39 -24
-36 -65 -150 -65 -181 0 -8 -17 -30 -39 -49 -72 -65 -102 -140 -211 -525 -60
-209 -65 -222 -198 -487 l-136 -271 -48 25 c-95 50 -182 29 -270 -65 -92 -98
-141 -235 -140 -392 1 -148 46 -266 131 -343 35 -32 41 -43 41 -78 0 -22 5
-49 10 -60 21 -38 93 -63 223 -76 49 -5 57 -3 57 11 0 9 11 21 25 26 32 12 31
25 -3 74 -16 24 -23 41 -16 43 166 55 251 235 242 512 -3 101 -5 111 -35 160
-18 29 -33 54 -33 55 0 2 59 56 130 120 144 129 203 199 329 386 73 109 183
240 202 240 3 0 23 -37 45 -82 l39 -83 3 -155 c3 -194 4 -192 -122 -208 -101
-13 -152 -38 -210 -103 -72 -79 -115 -216 -100 -318 10 -73 100 -290 140 -341
34 -42 36 -48 30 -97 -8 -69 -2 -81 58 -109 55 -26 86 -30 102 -14 7 7 23 3
49 -10 50 -25 75 -25 82 0 4 13 14 20 29 20 39 0 41 23 9 102 -5 13 4 21 42
38 83 37 148 115 173 210 16 61 14 215 -4 294 -16 69 -50 144 -84 186 l-20 24
48 91 c52 97 87 199 126 365 24 102 53 200 59 200 1 0 36 -15 77 -34 139 -63
332 -113 511 -131 l67 -7 0 -207 0 -206 -36 -20 c-57 -31 -139 -121 -173 -192
-93 -189 -78 -459 34 -628 62 -93 155 -155 233 -155 14 0 26 -8 31 -22 18 -47
46 -61 106 -55 39 4 64 1 87 -10 26 -14 39 -14 75 -5 24 7 53 12 64 12 20 0
21 4 16 43 -4 30 -14 50 -36 69 l-30 27 33 33 c18 18 41 56 51 83 10 28 24 65
32 84 l14 35 52 -52 c28 -28 78 -63 110 -77 43 -20 57 -31 53 -43 -24 -90 -13
-136 39 -157 40 -17 91 -20 100 -5 4 7 19 3 39 -10 39 -24 59 -25 75 -6 9 10
23 13 48 9 44 -7 53 5 53 75 0 44 -5 57 -26 79 -14 14 -24 26 -22 27 2 2 24
17 49 34 124 84 189 256 175 462 -16 242 -82 367 -231 436 -38 18 -87 35 -107
39 -21 4 -38 10 -38 14 0 3 12 60 25 126 19 91 25 152 25 250 l0 130 41 29
c102 72 203 237 235 380 34 159 5 408 -72 613 -14 36 -23 67 -22 68 2 1 21 12
44 23 85 43 162 171 171 286 9 107 -32 204 -301 711 -58 110 -106 203 -106
208 0 4 16 7 35 7 44 0 93 42 105 90 5 19 19 62 31 95 39 110 9 212 -111 374
-99 133 -206 229 -325 288 -55 28 -188 70 -259 82 -82 15 -298 12 -373 -5z
m624 -3577 c3 -95 3 -184 0 -198 -4 -15 -23 -33 -52 -48 -54 -28 -109 -92
-128 -145 l-12 -36 -54 40 c-29 22 -79 52 -111 67 l-59 27 5 100 c5 101 21
253 30 291 4 18 25 25 152 49 81 15 161 33 177 40 24 11 31 10 38 0 4 -7 10
-91 14 -187z"/>
</g>
</svg>
