<svg xmlns="http://www.w3.org/2000/svg" xmlns:xlink="http://www.w3.org/1999/xlink" width="500" zoomAndPan="magnify" viewBox="0 0 375 374.999991" height="500" preserveAspectRatio="xMidYMid meet" version="1.0"><path stroke-linecap="round" transform="matrix(7.515559, 0, 0, 7.506118, -0.363501, -0.335385)" fill="none" stroke-linejoin="round" d="M 16.000169 40.999814 C 16.000169 41.163743 15.991853 41.327152 15.97574 41.49004 C 15.959628 41.652927 15.935719 41.814775 15.904014 41.975581 C 15.871789 42.135867 15.832288 42.294592 15.78447 42.451235 C 15.737173 42.607878 15.682079 42.761919 15.619188 42.913358 C 15.556818 43.064797 15.486651 43.212593 15.409727 43.356746 C 15.332284 43.50142 15.248083 43.64193 15.157126 43.777757 C 15.066169 43.914104 14.968975 44.045247 14.865024 44.172227 C 14.761073 44.298686 14.651404 44.419941 14.535499 44.535472 C 14.419594 44.651523 14.298491 44.761329 14.17219 44.864891 C 14.04537 44.968972 13.913872 45.066289 13.777696 45.15736 C 13.64152 45.248432 13.501186 45.332218 13.357214 45.409759 C 13.212722 45.486779 13.064592 45.556514 12.913344 45.619483 C 12.762095 45.681932 12.608247 45.737096 12.451281 45.784453 C 12.294835 45.832331 12.13631 45.871882 11.975705 45.904147 C 11.815101 45.935892 11.652938 45.959831 11.490254 45.975963 C 11.327051 45.992096 11.163848 45.999902 11.000125 45.999902 C 10.836402 45.999902 10.672679 45.992096 10.509996 45.975963 C 10.346793 45.959831 10.185149 45.935892 10.024545 45.904147 C 9.863941 45.871882 9.705415 45.832331 9.548449 45.784453 C 9.392003 45.737096 9.237636 45.681932 9.086387 45.619483 C 8.935138 45.556514 8.787528 45.486779 8.643036 45.409759 C 8.498544 45.332218 8.35821 45.248432 8.222034 45.15736 C 8.085859 45.066289 7.954361 44.968972 7.82806 44.864891 C 7.70124 44.761329 7.580137 44.651523 7.464232 44.535472 C 7.348846 44.419941 7.238658 44.298686 7.134707 44.172227 C 7.031276 44.045247 6.933562 43.914104 6.842604 43.777757 C 6.751647 43.64193 6.667447 43.50142 6.590523 43.356746 C 6.51308 43.212593 6.443433 43.064797 6.380542 42.913358 C 6.318172 42.761919 6.263078 42.607878 6.21526 42.451235 C 6.167962 42.294592 6.127941 42.135867 6.096236 41.975581 C 6.064011 41.814775 6.040103 41.652927 6.02399 41.49004 C 6.007878 41.327152 6.000082 41.163743 6.000082 40.999814 C 6.000082 40.836406 6.007878 40.672998 6.02399 40.51011 C 6.040103 40.346701 6.064011 40.185375 6.096236 40.024568 C 6.127941 39.863762 6.167962 39.705037 6.21526 39.548394 C 6.263078 39.391751 6.318172 39.23771 6.380542 39.086792 C 6.443433 38.935353 6.51308 38.787557 6.590523 38.642883 C 6.667447 38.49873 6.751647 38.358219 6.842604 38.222393 C 6.933562 38.086045 7.031276 37.954382 7.134707 37.827923 C 7.238658 37.701463 7.348846 37.580208 7.464232 37.464677 C 7.580137 37.348626 7.70124 37.23882 7.82806 37.134738 C 7.954361 37.031177 8.085859 36.93386 8.222034 36.842789 C 8.35821 36.751717 8.498544 36.667411 8.643036 36.590391 C 8.787528 36.51337 8.935138 36.443115 9.086387 36.380666 C 9.237636 36.317696 9.392003 36.263053 9.548449 36.215176 C 9.705415 36.167819 9.863941 36.128267 10.024545 36.096002 C 10.185149 36.064257 10.346793 36.040318 10.509996 36.024186 C 10.672679 36.008053 10.836402 36.000247 11.000125 36.000247 C 11.163848 36.000247 11.327051 36.008053 11.490254 36.024186 C 11.652938 36.040318 11.814581 36.064257 11.975705 36.096002 C 12.13631 36.128267 12.294835 36.167819 12.451281 36.215176 C 12.608247 36.263053 12.762095 36.317696 12.913344 36.380666 C 13.064592 36.443115 13.212722 36.51337 13.357214 36.590391 C 13.501186 36.667411 13.64152 36.751717 13.777696 36.842789 C 13.913872 36.93386 14.04537 37.031177 14.17219 37.134738 C 14.298491 37.23882 14.419594 37.348626 14.535499 37.464677 C 14.651404 37.580208 14.761073 37.701463 14.865024 37.827923 C 14.968975 37.954382 15.066169 38.086045 15.157126 38.222393 C 15.248083 38.358219 15.332284 38.49873 15.409727 38.642883 C 15.486651 38.787557 15.556818 38.935353 15.619188 39.086792 C 15.682079 39.23771 15.737173 39.391751 15.78447 39.548394 C 15.832288 39.705037 15.871789 39.863762 15.904014 40.024568 C 15.935719 40.185375 15.959628 40.346701 15.97574 40.51011 C 15.991853 40.672998 16.000169 40.836406 16.000169 40.999814 Z M 16.000169 40.999814 " stroke="#403e3e" stroke-width="2" stroke-opacity="1" stroke-miterlimit="10"/><path stroke-linecap="round" transform="matrix(7.515559, 0, 0, 7.506118, -0.363501, -0.335385)" fill="none" stroke-linejoin="round" d="M 29.999771 26.999776 C 29.999771 26.999776 32.279937 22.93122 34.569977 18.840807 " stroke="#403e3e" stroke-width="2" stroke-opacity="1" stroke-miterlimit="10"/><path stroke-linecap="round" transform="matrix(7.515559, 0, 0, 7.506118, -0.363501, -0.335385)" fill="none" stroke-linejoin="round" d="M 21.000212 33.999795 L 16.000169 42.00004 " stroke="#403e3e" stroke-width="2" stroke-opacity="1" stroke-miterlimit="10"/><path stroke-linecap="round" transform="matrix(7.515559, 0, 0, 7.506118, -0.363501, -0.335385)" fill="none" stroke-linejoin="round" d="M 30.050187 17.740142 L 26.999745 22.999914 " stroke="#403e3e" stroke-width="2" stroke-opacity="1" stroke-miterlimit="10"/><path stroke-linecap="round" transform="matrix(7.515559, 0, 0, 7.506118, -0.363501, -0.335385)" fill="none" stroke-linejoin="round" d="M 32.470167 13.550852 L 37.999841 3.999789 C 38.860036 4.620116 39.999858 6.00024 39.999858 8.000171 C 39.999858 8.999876 39.53 10.080245 38.99985 10.999808 C 38.690076 11.539992 37.310126 13.980189 37.310126 13.980189 " stroke="#403e3e" stroke-width="2" stroke-opacity="1" stroke-miterlimit="10"/><path stroke-linecap="butt" transform="matrix(7.515559, 0, 0, 7.506118, -0.363501, -0.335385)" fill="none" stroke-linejoin="round" d="M 10.000116 40.999814 L 12.000134 40.999814 " stroke="#403e3e" stroke-width="2" stroke-opacity="1" stroke-miterlimit="10"/><path stroke-linecap="round" transform="matrix(7.515559, 0, 0, 7.506118, -0.363501, -0.335385)" fill="none" stroke-linejoin="round" d="M 43.999893 40.999814 C 43.999893 41.163743 43.992097 41.327152 43.975985 41.49004 C 43.959872 41.652927 43.935963 41.814775 43.903739 41.975581 C 43.872034 42.135867 43.832012 42.294592 43.784715 42.451235 C 43.737417 42.607878 43.681803 42.761919 43.619433 42.913358 C 43.556542 43.064797 43.486895 43.212593 43.409452 43.356746 C 43.332528 43.50142 43.248328 43.64193 43.15737 43.777757 C 43.066413 43.914104 42.968699 44.045247 42.865268 44.172227 C 42.761317 44.298686 42.651129 44.419941 42.535743 44.535472 C 42.419838 44.651523 42.298735 44.761329 42.171915 44.864891 C 42.045614 44.968972 41.914116 45.066289 41.77794 45.15736 C 41.641765 45.248432 41.501431 45.332218 41.356939 45.409759 C 41.212447 45.486779 41.064837 45.556514 40.913588 45.619483 C 40.762339 45.681932 40.607972 45.737096 40.451526 45.784453 C 40.29456 45.832331 40.136034 45.871882 39.97543 45.904147 C 39.814826 45.935892 39.653182 45.959831 39.489979 45.975963 C 39.327295 45.992096 39.163573 45.999902 38.99985 45.999902 C 38.836127 45.999902 38.672924 45.992096 38.509721 45.975963 C 38.347037 45.959831 38.185394 45.935892 38.024789 45.904147 C 37.864185 45.871882 37.70514 45.832331 37.548694 45.784453 C 37.391728 45.737096 37.23788 45.681932 37.086631 45.619483 C 36.935383 45.556514 36.787252 45.486779 36.642761 45.409759 C 36.498788 45.332218 36.358455 45.248432 36.222279 45.15736 C 36.086103 45.066289 35.954605 44.968972 35.827785 44.864891 C 35.701484 44.761329 35.580381 44.651523 35.464476 44.535472 C 35.34857 44.419941 35.238902 44.298686 35.134951 44.172227 C 35.031 44.045247 34.933806 43.914104 34.842849 43.777757 C 34.751892 43.64193 34.667691 43.50142 34.590248 43.356746 C 34.513324 43.212593 34.443157 43.064797 34.380787 42.913358 C 34.317896 42.761919 34.262802 42.607878 34.215504 42.451235 C 34.167687 42.294592 34.128186 42.135867 34.095961 41.975581 C 34.064256 41.814775 34.040347 41.652927 34.024235 41.49004 C 34.008122 41.327152 33.999806 41.163743 33.999806 40.999814 C 33.999806 40.836406 34.008122 40.672998 34.024235 40.51011 C 34.040347 40.346701 34.064256 40.185375 34.095961 40.024568 C 34.128186 39.863762 34.167687 39.705037 34.215504 39.548394 C 34.262802 39.391751 34.317896 39.23771 34.380787 39.086792 C 34.443157 38.935353 34.513324 38.787557 34.590248 38.642883 C 34.667691 38.49873 34.751892 38.358219 34.842849 38.222393 C 34.933806 38.086045 35.031 37.954382 35.134951 37.827923 C 35.238902 37.701463 35.34857 37.580208 35.464476 37.464677 C 35.580381 37.348626 35.701484 37.23882 35.827785 37.134738 C 35.954605 37.031177 36.086103 36.93386 36.222279 36.842789 C 36.358455 36.751717 36.498788 36.667411 36.642761 36.590391 C 36.787252 36.51337 36.935383 36.443115 37.086631 36.380666 C 37.23788 36.317696 37.391728 36.263053 37.548694 36.215176 C 37.70514 36.167819 37.864185 36.128267 38.024789 36.096002 C 38.185394 36.064257 38.347037 36.040318 38.509721 36.024186 C 38.672924 36.008053 38.836127 36.000247 38.99985 36.000247 C 39.163573 36.000247 39.327295 36.008053 39.489979 36.024186 C 39.653182 36.040318 39.814826 36.064257 39.97543 36.096002 C 40.136034 36.128267 40.29456 36.167819 40.451526 36.215176 C 40.607972 36.263053 40.762339 36.317696 40.913588 36.380666 C 41.064837 36.443115 41.212447 36.51337 41.356939 36.590391 C 41.501431 36.667411 41.641765 36.751717 41.77794 36.842789 C 41.914116 36.93386 42.045614 37.031177 42.171915 37.134738 C 42.298735 37.23882 42.419838 37.348626 42.535743 37.464677 C 42.651129 37.580208 42.761317 37.701463 42.865268 37.827923 C 42.968699 37.954382 43.066413 38.086045 43.15737 38.222393 C 43.248328 38.358219 43.332528 38.49873 43.409452 38.642883 C 43.486895 38.787557 43.556542 38.935353 43.619433 39.086792 C 43.681803 39.23771 43.737417 39.391751 43.784715 39.548394 C 43.832012 39.705037 43.872034 39.863762 43.903739 40.024568 C 43.935963 40.185375 43.959872 40.346701 43.975985 40.51011 C 43.992097 40.672998 43.999893 40.836406 43.999893 40.999814 Z M 43.999893 40.999814 " stroke="#403e3e" stroke-width="2" stroke-opacity="1" stroke-miterlimit="10"/><path stroke-linecap="round" transform="matrix(7.515559, 0, 0, 7.506118, -0.363501, -0.335385)" fill="none" stroke-linejoin="round" d="M 27.999754 31.999864 C 26.000256 29.999933 23.956059 29.999933 22.000221 29.999933 C 22.000221 29.999933 12.405023 13.455096 11.000125 10.999808 C 10.472054 10.077123 10.000116 8.999876 10.000116 8.000171 C 10.000116 6.00024 11.139939 4.623759 12.000134 3.999789 L 33.999806 42.00004 " stroke="#403e3e" stroke-width="2" stroke-opacity="1" stroke-miterlimit="10"/><path stroke-linecap="butt" transform="matrix(7.515559, 0, 0, 7.506118, -0.363501, -0.335385)" fill="none" stroke-linejoin="round" d="M 39.999858 40.999814 L 37.999841 40.999814 " stroke="#403e3e" stroke-width="2" stroke-opacity="1" stroke-miterlimit="10"/><path stroke-linecap="round" transform="matrix(7.515559, 0, 0, 7.506118, -0.363501, -0.335385)" fill="none" stroke-linejoin="round" d="M 7.00009 10.999808 C 5.000073 10.999808 3.610248 11.319859 2.000047 12.000033 L 3.000055 13.999964 L 2.000047 17.000121 C 4.000064 16.160181 6.450189 15.341058 9.000108 15.00019 " stroke="#ef512a" stroke-width="2" stroke-opacity="1" stroke-miterlimit="10"/><path stroke-linecap="round" transform="matrix(7.515559, 0, 0, 7.506118, -0.363501, -0.335385)" fill="none" stroke-linejoin="round" d="M 20.000204 10.000102 C 26.000256 10.000102 29.999771 13.999964 35.999824 13.999964 C 40.999867 13.999964 44.999902 13.000259 47.999928 12.000033 L 46.99992 15.00019 L 47.999928 17.000121 C 45.999911 17.999826 41.999876 19.000052 36.999832 19.000052 C 29.999771 19.000052 25.000247 15.00019 23.00023 15.00019 " stroke="#ef512a" stroke-width="2" stroke-opacity="1" stroke-miterlimit="10"/><path stroke-linecap="butt" transform="matrix(7.515559, 0, 0, 7.506118, -0.363501, -0.335385)" fill="none" stroke-linejoin="round" d="M 20.000204 6.00024 L 22.000221 6.00024 " stroke="#403e3e" stroke-width="2" stroke-opacity="1" stroke-miterlimit="10"/><path stroke-linecap="butt" transform="matrix(7.515559, 0, 0, 7.506118, -0.363501, -0.335385)" fill="none" stroke-linejoin="round" d="M 24.000239 6.00024 L 26.000256 6.00024 " stroke="#403e3e" stroke-width="2" stroke-opacity="1" stroke-miterlimit="10"/><path stroke-linecap="butt" transform="matrix(7.515559, 0, 0, 7.506118, -0.363501, -0.335385)" fill="none" stroke-linejoin="round" d="M 27.999754 6.00024 L 29.999771 6.00024 " stroke="#403e3e" stroke-width="2" stroke-opacity="1" stroke-miterlimit="10"/></svg>