<svg xmlns="http://www.w3.org/2000/svg" xmlns:xlink="http://www.w3.org/1999/xlink" width="500" zoomAndPan="magnify" viewBox="0 0 375 374.999991" height="500" preserveAspectRatio="xMidYMid meet" version="1.0"><path fill="#000000" d="M 266.886719 349.472656 C 266.269531 352.011719 265.171875 354.414062 264.144531 356.816406 C 263.046875 359.355469 260.851562 361.414062 258.382812 362.921875 C 259.683594 363.609375 260.917969 364.296875 261.949219 365.667969 C 263.800781 368.070312 264.347656 370.195312 264.210938 373.148438 C 262.703125 373.492188 260.851562 373.492188 259.273438 373.078125 C 259.273438 373.558594 259.273438 374.039062 259.273438 374.519531 C 257.078125 374.726562 254.609375 375 252.480469 374.382812 C 250.90625 373.902344 250.355469 373.148438 249.945312 372.117188 C 247.199219 373.351562 243.359375 374.109375 240.820312 373.148438 C 238.558594 372.253906 237.527344 369.855469 237.046875 367.382812 C 231.699219 367.65625 227.171875 366.078125 222.917969 361.894531 C 212.011719 351.328125 209.265625 335.40625 211.460938 321.066406 C 213.382812 308.644531 219.761719 298.421875 231.285156 292.65625 C 231.285156 291.421875 231.421875 290.050781 231.355469 289.160156 C 231.082031 279.964844 231.355469 270.835938 231.21875 261.640625 C 225.179688 261.503906 218.664062 260.40625 212.832031 259.242188 C 204.601562 257.523438 196.78125 255.808594 189.304688 252.171875 C 187.382812 251.28125 184.023438 250.046875 181.691406 248.46875 C 180.9375 251.417969 179.632812 254.300781 178.945312 257.183594 C 177.917969 261.503906 177.164062 265.964844 175.859375 270.289062 C 173.390625 278.660156 171.539062 286.480469 166.667969 293.960938 C 165.914062 295.128906 165.160156 296.570312 164.335938 297.941406 C 170.648438 305.421875 172.910156 313.585938 173.460938 323.398438 C 174.007812 332.800781 172.363281 342.269531 164.609375 348.789062 C 161.867188 351.121094 158.847656 352.425781 155.488281 353.179688 C 157.269531 355.855469 158.164062 358.050781 158.027344 361.621094 C 157.132812 362.03125 155.28125 362.238281 153.703125 362.167969 C 153.703125 363.058594 153.636719 364.019531 153.636719 364.636719 C 150.480469 366.011719 147.117188 364.15625 144.648438 362.03125 C 143.207031 365.257812 138.613281 363.265625 135.527344 361.960938 C 130.519531 359.835938 131.339844 357.089844 132.027344 352.492188 C 132.164062 351.667969 132.234375 350.847656 132.371094 350.089844 C 131.617188 349.128906 130.863281 348.03125 130.242188 347.277344 C 128.871094 345.699219 127.5 343.984375 126.539062 342.132812 C 125.097656 339.25 124 336.367188 123.179688 333.417969 C 122.355469 331.976562 121.601562 330.535156 120.984375 328.957031 C 117.074219 319.214844 118.582031 307.753906 124.617188 299.109375 C 130.449219 290.738281 138.75 288.679688 148.492188 289.160156 C 149.382812 287.648438 150.34375 286.207031 151.578125 284.972656 C 151.578125 283.667969 151.507812 282.433594 151.507812 281.199219 C 151.304688 275.296875 152.195312 269.328125 151.234375 263.496094 C 150.34375 258.28125 147.050781 253.820312 145.128906 248.949219 C 135.867188 256.015625 130.722656 266.855469 123.933594 275.984375 C 120.847656 280.167969 117.964844 284.421875 114.191406 288.199219 C 110.761719 291.628906 106.988281 294.992188 103.355469 298.214844 C 100.886719 300.480469 98.277344 302.402344 95.945312 304.804688 C 95.601562 305.144531 95.191406 305.488281 94.847656 305.832031 C 97.179688 308.507812 99.238281 311.390625 100.0625 314.890625 C 101.226562 319.625 100.679688 324.839844 100.335938 329.644531 C 99.71875 339.457031 97.660156 349.335938 89.703125 356.199219 C 87.164062 358.394531 84.285156 359.5625 81.199219 360.316406 C 82.5 363.058594 85.929688 365.117188 85.726562 368.207031 C 84.421875 369.097656 83.1875 369.375 81.816406 369.511719 C 82.15625 370.402344 82.363281 371.292969 81.816406 371.914062 C 80.992188 372.734375 77.90625 372.390625 76.808594 372.253906 C 75.023438 371.980469 72.828125 371.363281 71.046875 370.265625 C 68.097656 371.226562 64.253906 369.375 62.058594 367.453125 C 59.726562 365.460938 59.246094 361.480469 60.070312 358.394531 C 57.394531 356.609375 55.0625 354.414062 53.140625 351.53125 C 43.882812 337.671875 45.183594 317.359375 54.652344 303.910156 C 58.082031 299.109375 63.226562 294.097656 69.605469 293.617188 C 74.269531 293.273438 78.179688 295.609375 81.816406 298.148438 C 82.296875 296.636719 82.777344 295.128906 83.1875 294.167969 C 85.039062 290.460938 87.164062 286.960938 88.878906 283.1875 C 91.898438 276.394531 95.671875 269.875 99.03125 263.289062 C 102.667969 256.222656 104.175781 249.085938 106.371094 241.535156 C 108.980469 232.683594 111.378906 223.628906 114.261719 214.84375 C 115.496094 211.140625 117.621094 206.609375 120.160156 203.589844 C 121.1875 202.425781 123.179688 200.367188 125.167969 199.269531 C 125.238281 198.855469 125.238281 198.375 125.304688 198.03125 C 125.714844 195.632812 126.195312 193.296875 126.953125 190.964844 C 127.707031 188.699219 128.941406 186.640625 129.96875 184.515625 C 130.449219 183.484375 131.546875 182.320312 132.300781 181.152344 C 122.972656 177.449219 114.46875 172.164062 109.320312 163.449219 C 103.078125 152.882812 103.011719 139.363281 109.800781 128.933594 C 116.730469 118.367188 129.902344 112.464844 142.726562 114.523438 C 154.320312 116.445312 163.855469 124.542969 167.699219 135.246094 C 170.714844 143.550781 169.753906 152.058594 167.972656 160.363281 C 171.539062 157.753906 175.996094 155.765625 179.769531 154.253906 C 179.359375 153.566406 178.945312 152.882812 178.605469 152.128906 C 175.722656 145.332031 179.839844 139.226562 182.378906 133.050781 C 184.777344 127.082031 187.246094 120.21875 191.089844 114.867188 C 186.628906 108.828125 182.996094 102.996094 181.964844 95.859375 C 180.867188 93.527344 179.976562 91.125 179.425781 88.585938 C 177.574219 79.597656 179.359375 69.167969 181.828125 60.453125 C 184.09375 52.425781 187.726562 44.875 192.597656 38.152344 C 195.683594 27.449219 201.378906 18.457031 210.570312 11.597656 C 220.171875 4.390625 231.628906 0.6875 243.769531 0.34375 C 257.765625 0 272.71875 3.019531 284.515625 10.566406 C 294.738281 17.085938 303.242188 27.242188 309.210938 37.464844 C 311.75 41.71875 313.808594 46.523438 313.53125 51.53125 C 313.328125 55.304688 311.816406 58.804688 310.035156 62.101562 C 310.035156 64.980469 308.800781 68.136719 306.605469 69.785156 C 304.890625 71.089844 303.105469 71.019531 301.046875 71.15625 C 300.226562 71.226562 299.402344 71.363281 298.648438 71.5 C 305.917969 85.839844 314.011719 99.839844 321.148438 114.320312 C 324.234375 120.632812 327.9375 127.148438 329.515625 134.011719 C 331.023438 140.597656 329.105469 147.1875 325.8125 152.949219 C 322.65625 158.507812 318.675781 162.078125 313.191406 163.792969 C 318.402344 176.144531 321.695312 188.769531 321.902344 202.21875 C 322.105469 215.941406 317.921875 228.636719 308.113281 238.792969 C 305.710938 241.332031 303.039062 243.457031 300.226562 245.449219 C 300.363281 247.78125 300.085938 250.390625 300.15625 252.378906 C 300.226562 255.742188 300.15625 259.035156 299.949219 262.398438 C 299.539062 268.574219 297.960938 274.542969 296.726562 280.648438 C 296.519531 281.746094 296.109375 282.84375 295.628906 283.941406 C 307.222656 286.34375 316.621094 290.394531 321.007812 302.195312 C 325.949219 315.578125 326.703125 334.652344 318.953125 347.210938 C 316.003906 351.945312 311.75 355.101562 307.015625 357.640625 C 308.867188 358.875 310.71875 360.523438 311.0625 361.824219 C 311.75 364.636719 311.0625 368.136719 310.652344 371.019531 C 308.113281 371.914062 306.398438 371.15625 304.683594 370.058594 C 304.273438 371.84375 302.488281 373.214844 300.429688 372.53125 C 299.128906 372.117188 297.414062 370.953125 296.109375 369.714844 C 294.257812 372.460938 291.582031 371.707031 287.808594 370.402344 C 282.871094 368.753906 283.488281 364.433594 284.242188 360.179688 C 284.449219 359.082031 284.789062 358.050781 285.203125 357.023438 C 281.839844 355.855469 278.273438 354.207031 275.734375 352.425781 C 272.582031 350.230469 270.453125 347.894531 268.535156 345.082031 C 267.984375 346.523438 267.230469 348.101562 266.886719 349.472656 Z M 268.808594 293.617188 C 271.414062 290.738281 274.777344 287.855469 278.6875 286.824219 C 278.960938 281.679688 279.027344 276.53125 278.890625 271.316406 C 278.753906 265.964844 278.753906 260.203125 277.792969 254.847656 C 276.492188 255.398438 275.117188 256.222656 274.226562 256.566406 C 271.964844 257.457031 269.425781 257.523438 267.023438 258.003906 C 262.359375 258.898438 257.832031 260.476562 253.03125 260.613281 C 252.277344 260.613281 251.523438 260.679688 250.835938 260.679688 C 250.425781 262.191406 249.945312 263.769531 249.808594 264.59375 C 249.257812 267.679688 248.640625 270.699219 248.503906 273.855469 C 248.296875 279.207031 247.886719 284.5625 247.679688 289.914062 C 247.679688 290.667969 247.679688 291.421875 247.75 292.246094 C 248.503906 292.726562 249.257812 293.273438 250.011719 293.617188 C 251.246094 294.097656 252.34375 294.375 253.511719 294.992188 C 256.117188 296.292969 258.65625 297.941406 260.917969 299.65625 C 261.8125 300.34375 263.046875 301.441406 264.347656 302.675781 C 265.035156 299.3125 266.476562 296.15625 268.808594 293.617188 Z M 268.808594 293.617188 " fill-opacity="1" fill-rule="nonzero"/></svg>