<svg xmlns="http://www.w3.org/2000/svg" xmlns:xlink="http://www.w3.org/1999/xlink" width="500" zoomAndPan="magnify" viewBox="0 0 375 374.999991" height="500" preserveAspectRatio="xMidYMid meet" version="1.0"><defs><g/><clipPath id="fb2ffa57bd"><path d="M 6.746094 113.285156 L 155.246094 113.285156 L 155.246094 261.785156 L 6.746094 261.785156 Z M 6.746094 113.285156 " clip-rule="nonzero"/></clipPath><clipPath id="1f1954fe10"><path d="M 22 110.015625 L 140 110.015625 L 140 265.265625 L 22 265.265625 Z M 22 110.015625 " clip-rule="nonzero"/></clipPath></defs><g clip-path="url(#fb2ffa57bd)"><path fill="#92e4df" d="M 80.996094 113.285156 C 39.988281 113.285156 6.746094 146.53125 6.746094 187.535156 C 6.746094 228.542969 39.988281 261.785156 80.996094 261.785156 C 122 261.785156 155.246094 228.542969 155.246094 187.535156 C 155.246094 146.53125 122 113.285156 80.996094 113.285156 " fill-opacity="1" fill-rule="nonzero"/></g><g clip-path="url(#1f1954fe10)"><path fill="#446966" d="M 113.605469 254.699219 C 113.351562 255.75 112.898438 256.742188 112.472656 257.738281 C 112.019531 258.789062 111.117188 259.640625 110.097656 260.265625 C 110.632812 260.550781 111.144531 260.835938 111.566406 261.402344 C 112.332031 262.398438 112.558594 263.277344 112.5 264.5 C 111.878906 264.640625 111.117188 264.640625 110.464844 264.472656 C 110.464844 264.667969 110.464844 264.867188 110.464844 265.066406 C 109.558594 265.152344 108.539062 265.265625 107.664062 265.011719 C 107.011719 264.8125 106.785156 264.5 106.617188 264.074219 C 105.484375 264.585938 103.898438 264.898438 102.851562 264.5 C 101.917969 264.128906 101.492188 263.136719 101.296875 262.113281 C 99.089844 262.226562 97.222656 261.574219 95.464844 259.839844 C 90.964844 255.464844 89.835938 248.875 90.742188 242.9375 C 91.53125 237.796875 94.164062 233.5625 98.917969 231.175781 C 98.917969 230.664062 98.976562 230.097656 98.945312 229.726562 C 98.832031 225.921875 98.945312 222.144531 98.890625 218.335938 C 96.398438 218.28125 93.710938 217.824219 91.304688 217.34375 C 87.910156 216.632812 84.683594 215.921875 81.601562 214.414062 C 80.808594 214.046875 79.421875 213.535156 78.457031 212.882812 C 78.148438 214.101562 77.609375 215.296875 77.328125 216.488281 C 76.902344 218.28125 76.589844 220.125 76.054688 221.914062 C 75.035156 225.382812 74.269531 228.621094 72.261719 231.714844 C 71.949219 232.199219 71.640625 232.796875 71.300781 233.363281 C 73.902344 236.460938 74.835938 239.839844 75.0625 243.902344 C 75.289062 247.796875 74.609375 251.714844 71.414062 254.414062 C 70.28125 255.378906 69.035156 255.921875 67.648438 256.234375 C 68.382812 257.339844 68.753906 258.25 68.695312 259.726562 C 68.328125 259.898438 67.5625 259.984375 66.914062 259.953125 C 66.914062 260.324219 66.886719 260.722656 66.886719 260.976562 C 65.582031 261.542969 64.195312 260.777344 63.175781 259.898438 C 62.582031 261.230469 60.6875 260.410156 59.414062 259.867188 C 57.347656 258.988281 57.6875 257.851562 57.972656 255.949219 C 58.027344 255.609375 58.054688 255.265625 58.113281 254.953125 C 57.800781 254.554688 57.488281 254.101562 57.234375 253.789062 C 56.667969 253.136719 56.101562 252.425781 55.707031 251.660156 C 55.113281 250.464844 54.660156 249.273438 54.320312 248.050781 C 53.980469 247.453125 53.667969 246.859375 53.414062 246.203125 C 51.800781 242.171875 52.425781 237.425781 54.914062 233.847656 C 57.320312 230.382812 60.742188 229.527344 64.761719 229.726562 C 65.128906 229.101562 65.527344 228.507812 66.035156 227.996094 C 66.035156 227.457031 66.007812 226.945312 66.007812 226.433594 C 65.921875 223.988281 66.289062 221.519531 65.894531 219.101562 C 65.527344 216.945312 64.167969 215.097656 63.375 213.082031 C 59.554688 216.007812 57.433594 220.496094 54.632812 224.273438 C 53.359375 226.007812 52.167969 227.769531 50.613281 229.332031 C 49.199219 230.75 47.640625 232.140625 46.140625 233.476562 C 45.125 234.414062 44.046875 235.210938 43.085938 236.203125 C 42.945312 236.347656 42.773438 236.488281 42.632812 236.632812 C 43.59375 237.738281 44.445312 238.933594 44.785156 240.382812 C 45.265625 242.339844 45.039062 244.5 44.898438 246.488281 C 44.640625 250.550781 43.792969 254.640625 40.511719 257.484375 C 39.464844 258.390625 38.273438 258.875 37 259.1875 C 37.539062 260.324219 38.953125 261.175781 38.871094 262.453125 C 38.332031 262.824219 37.824219 262.9375 37.257812 262.992188 C 37.398438 263.363281 37.484375 263.730469 37.257812 263.988281 C 36.917969 264.328125 35.644531 264.1875 35.191406 264.128906 C 34.453125 264.015625 33.550781 263.761719 32.8125 263.304688 C 31.597656 263.703125 30.011719 262.9375 29.105469 262.140625 C 28.144531 261.316406 27.945312 259.671875 28.285156 258.390625 C 27.183594 257.652344 26.21875 256.742188 25.425781 255.550781 C 21.605469 249.8125 22.144531 241.402344 26.050781 235.835938 C 27.464844 233.847656 29.585938 231.773438 32.21875 231.574219 C 34.144531 231.433594 35.757812 232.398438 37.257812 233.449219 C 37.453125 232.824219 37.652344 232.199219 37.824219 231.800781 C 38.585938 230.269531 39.464844 228.820312 40.171875 227.257812 C 41.417969 224.445312 42.972656 221.746094 44.359375 219.019531 C 45.859375 216.09375 46.480469 213.136719 47.386719 210.011719 C 48.460938 206.347656 49.453125 202.597656 50.640625 198.960938 C 51.152344 197.429688 52.027344 195.554688 53.074219 194.304688 C 53.5 193.820312 54.320312 192.96875 55.140625 192.511719 C 55.167969 192.34375 55.167969 192.144531 55.199219 192.003906 C 55.367188 191.007812 55.566406 190.042969 55.875 189.074219 C 56.1875 188.136719 56.699219 187.285156 57.121094 186.40625 C 57.320312 185.980469 57.773438 185.496094 58.082031 185.011719 C 54.234375 183.480469 50.726562 181.292969 48.605469 177.683594 C 46.027344 173.308594 46 167.714844 48.800781 163.394531 C 51.660156 159.019531 57.09375 156.578125 62.386719 157.429688 C 67.167969 158.226562 71.101562 161.578125 72.6875 166.007812 C 73.929688 169.445312 73.535156 172.96875 72.800781 176.40625 C 74.269531 175.328125 76.109375 174.503906 77.667969 173.878906 C 77.496094 173.59375 77.328125 173.308594 77.183594 172.996094 C 75.996094 170.183594 77.695312 167.65625 78.742188 165.097656 C 79.730469 162.628906 80.75 159.789062 82.335938 157.570312 C 80.496094 155.070312 78.996094 152.65625 78.570312 149.703125 C 78.121094 148.738281 77.75 147.742188 77.523438 146.691406 C 76.761719 142.96875 77.496094 138.652344 78.515625 135.042969 C 79.449219 131.71875 80.949219 128.59375 82.957031 125.8125 C 84.230469 121.378906 86.582031 117.65625 90.371094 114.816406 C 94.335938 111.835938 99.058594 110.300781 104.070312 110.160156 C 109.84375 110.015625 116.011719 111.265625 120.878906 114.390625 C 125.09375 117.089844 128.605469 121.292969 131.066406 125.527344 C 132.113281 127.289062 132.960938 129.277344 132.847656 131.351562 C 132.761719 132.914062 132.140625 134.363281 131.40625 135.726562 C 131.40625 136.917969 130.894531 138.226562 129.992188 138.90625 C 129.28125 139.445312 128.546875 139.417969 127.699219 139.476562 C 127.359375 139.503906 127.019531 139.5625 126.707031 139.617188 C 129.707031 145.554688 133.046875 151.351562 135.988281 157.34375 C 137.261719 159.957031 138.792969 162.65625 139.441406 165.496094 C 140.066406 168.222656 139.273438 170.953125 137.914062 173.339844 C 136.613281 175.640625 134.972656 177.117188 132.707031 177.828125 C 134.859375 182.941406 136.214844 188.167969 136.300781 193.734375 C 136.386719 199.417969 134.660156 204.671875 130.613281 208.875 C 129.621094 209.925781 128.519531 210.808594 127.359375 211.632812 C 127.414062 212.597656 127.300781 213.675781 127.332031 214.5 C 127.359375 215.894531 127.332031 217.257812 127.246094 218.648438 C 127.074219 221.207031 126.425781 223.675781 125.914062 226.207031 C 125.832031 226.660156 125.660156 227.113281 125.460938 227.570312 C 130.246094 228.5625 134.121094 230.238281 135.933594 235.125 C 137.96875 240.664062 138.28125 248.5625 135.085938 253.761719 C 133.867188 255.722656 132.113281 257.027344 130.160156 258.078125 C 130.925781 258.589844 131.6875 259.273438 131.828125 259.8125 C 132.113281 260.976562 131.828125 262.425781 131.660156 263.617188 C 130.613281 263.988281 129.90625 263.675781 129.199219 263.222656 C 129.027344 263.960938 128.292969 264.527344 127.445312 264.242188 C 126.90625 264.074219 126.199219 263.589844 125.660156 263.078125 C 124.898438 264.214844 123.792969 263.902344 122.238281 263.363281 C 120.199219 262.679688 120.453125 260.890625 120.765625 259.128906 C 120.851562 258.675781 120.992188 258.25 121.160156 257.824219 C 119.773438 257.339844 118.304688 256.660156 117.257812 255.921875 C 115.953125 255.011719 115.078125 254.046875 114.285156 252.878906 C 114.058594 253.476562 113.746094 254.128906 113.605469 254.699219 Z M 114.398438 231.574219 C 115.472656 230.382812 116.859375 229.1875 118.472656 228.761719 C 118.585938 226.632812 118.613281 224.5 118.558594 222.339844 C 118.5 220.125 118.5 217.738281 118.105469 215.523438 C 117.566406 215.75 117 216.09375 116.632812 216.234375 C 115.699219 216.601562 114.652344 216.632812 113.664062 216.832031 C 111.738281 217.199219 109.871094 217.851562 107.890625 217.910156 C 107.578125 217.910156 107.265625 217.9375 106.984375 217.9375 C 106.8125 218.5625 106.617188 219.21875 106.558594 219.558594 C 106.332031 220.835938 106.078125 222.085938 106.023438 223.394531 C 105.9375 225.609375 105.765625 227.824219 105.683594 230.039062 C 105.683594 230.351562 105.683594 230.664062 105.710938 231.007812 C 106.023438 231.207031 106.332031 231.433594 106.644531 231.574219 C 107.152344 231.773438 107.605469 231.886719 108.085938 232.140625 C 109.164062 232.683594 110.210938 233.363281 111.144531 234.074219 C 111.511719 234.359375 112.019531 234.8125 112.558594 235.324219 C 112.839844 233.933594 113.4375 232.625 114.398438 231.574219 Z M 114.398438 231.574219 " fill-opacity="1" fill-rule="nonzero"/></g><g fill="#000000" fill-opacity="1"><g transform="translate(179.288592, 221.213189)"><g><path d="M 34.03125 31.183594 C 34.203125 31.097656 34.328125 30.96875 34.328125 30.882812 C 34.289062 30.839844 34.289062 30.757812 34.160156 30.628906 C 33.097656 29.777344 33.308594 29.011719 33.480469 28.375 C 33.523438 28.246094 33.5625 28.078125 33.5625 27.90625 C 34.246094 23.140625 35.648438 18.632812 37.011719 14.25 L 37.5625 12.378906 C 39.605469 5.785156 49.175781 -15.695312 51.644531 -21.867188 C 53.046875 -25.3125 54.492188 -28.882812 55.8125 -32.457031 C 56.28125 -33.691406 56.75 -35.179688 56.832031 -36.882812 C 56.875 -37.777344 56.621094 -38.414062 55.984375 -38.925781 C 55.601562 -39.265625 55.21875 -39.390625 54.792969 -39.390625 C 54.492188 -39.390625 54.238281 -39.347656 53.898438 -39.179688 C 52.324219 -38.582031 51.132812 -37.605469 49.898438 -36.585938 C 44.410156 -31.863281 32.160156 -18.335938 27.140625 -12.378906 C 26.671875 -11.785156 26.203125 -11.1875 25.738281 -10.59375 C 24.929688 -9.570312 24.078125 -8.507812 23.140625 -7.53125 C 22.375 -6.679688 21.609375 -5.957031 20.84375 -5.402344 L 20.675781 -5.273438 C 20.335938 -4.976562 19.953125 -4.679688 19.652344 -4.679688 L 19.441406 -4.722656 L 19.355469 -4.808594 C 19.015625 -5.105469 19.015625 -5.742188 19.058594 -6.464844 C 19.101562 -6.933594 19.183594 -7.402344 19.269531 -7.828125 L 19.3125 -8.039062 C 19.484375 -9.019531 19.652344 -9.953125 19.867188 -10.933594 C 20.25 -12.71875 20.589844 -14.507812 20.886719 -16.292969 C 21.183594 -18.035156 21.441406 -20.035156 21.484375 -22.164062 C 21.484375 -23.3125 21.398438 -24.375 20.25 -25.011719 C 19.867188 -25.226562 19.527344 -25.3125 19.144531 -25.3125 C 18.589844 -25.3125 18.078125 -25.097656 17.441406 -24.671875 C 16.164062 -23.824219 15.015625 -22.632812 13.742188 -20.929688 C 8.335938 -13.527344 4.933594 -5.019531 2.339844 2.339844 C 2.296875 2.425781 2.296875 2.550781 2.253906 2.636719 C 2.085938 2.976562 1.914062 3.359375 2.085938 3.742188 C 2.210938 3.957031 2.382812 4.082031 2.550781 4.082031 C 2.636719 4.082031 2.722656 4.042969 2.808594 4 C 3.0625 3.785156 3.234375 3.445312 3.359375 3.105469 C 3.402344 2.976562 3.488281 2.851562 3.53125 2.722656 C 4.253906 1.277344 4.976562 -0.171875 5.699219 -1.617188 C 5.699219 -1.617188 7.445312 -5.148438 7.871094 -6.082031 C 10.507812 -11.527344 13.273438 -17.1875 17.101562 -21.992188 C 17.570312 -22.589844 18.800781 -23.949219 19.570312 -23.949219 C 19.824219 -23.949219 20.035156 -23.824219 20.164062 -23.566406 C 20.335938 -23.269531 20.375 -22.929688 20.460938 -22.589844 C 20.589844 -21.992188 20.632812 -21.398438 20.589844 -20.71875 C 20.503906 -18.417969 20.035156 -16.164062 19.609375 -13.996094 C 19.484375 -13.1875 19.3125 -12.378906 19.144531 -11.570312 L 19.015625 -10.761719 C 18.71875 -9.144531 18.417969 -7.488281 18.25 -5.785156 C 18.121094 -4.808594 18.417969 -4.167969 19.058594 -3.785156 C 19.269531 -3.660156 19.527344 -3.574219 19.78125 -3.574219 C 20.121094 -3.574219 20.503906 -3.699219 20.84375 -4 C 21.140625 -4.253906 21.398438 -4.464844 21.695312 -4.722656 C 22.503906 -5.359375 23.3125 -6 23.992188 -6.722656 C 25.863281 -8.804688 27.734375 -10.933594 29.566406 -13.015625 C 32.203125 -15.996094 42.625 -27.269531 45.347656 -30.203125 L 45.476562 -30.332031 C 46.792969 -31.734375 48.15625 -33.179688 49.644531 -34.457031 L 50.027344 -34.753906 C 50.964844 -35.5625 51.941406 -36.371094 53.003906 -37.050781 C 53.089844 -37.09375 53.175781 -37.136719 53.261719 -37.222656 C 53.644531 -37.519531 54.195312 -37.945312 54.664062 -37.945312 C 54.792969 -37.945312 54.875 -37.902344 55.003906 -37.859375 C 55.429688 -37.648438 55.34375 -37.09375 55.300781 -36.882812 C 55.21875 -36.117188 55.046875 -35.394531 54.792969 -34.542969 C 54.535156 -33.820312 54.28125 -33.136719 53.984375 -32.414062 L 53.601562 -31.523438 L 52.195312 -27.863281 C 48.539062 -18.503906 37.734375 6.296875 34.839844 16.292969 L 34.753906 16.632812 C 33.691406 20.375 32.585938 24.246094 32.117188 28.332031 L 32.074219 28.5 C 31.988281 29.351562 31.90625 30.203125 32.925781 30.96875 C 33.179688 31.140625 33.4375 31.222656 33.648438 31.222656 C 33.777344 31.222656 33.90625 31.222656 34.03125 31.183594 Z M 34.03125 31.183594 "/></g></g></g><g fill="#000000" fill-opacity="1"><g transform="translate(226.591939, 221.213189)"><g><path d="M 21.867188 -8.296875 C 21.695312 -8.296875 21.441406 -8.082031 21.269531 -7.953125 L 21.140625 -7.871094 C 20.757812 -7.65625 20.460938 -7.359375 20.121094 -7.105469 C 19.953125 -6.933594 19.78125 -6.804688 19.570312 -6.679688 C 19.183594 -6.382812 18.84375 -6.082031 18.460938 -5.785156 C 17.953125 -5.359375 17.441406 -4.933594 16.886719 -4.507812 C 15.230469 -3.316406 13.441406 -2 11.613281 -0.765625 C 11.359375 -0.59375 10.464844 -0.128906 9.871094 -0.128906 C 9.785156 -0.128906 9.699219 -0.128906 9.613281 -0.171875 C 9.488281 -0.210938 9.402344 -0.253906 9.359375 -0.382812 C 9.273438 -0.511719 9.273438 -0.722656 9.359375 -1.019531 L 9.613281 -1.617188 C 9.828125 -2.296875 10.082031 -2.976562 10.378906 -3.617188 L 11.144531 -5.191406 C 12.125 -7.1875 13.101562 -9.230469 14.039062 -11.273438 C 14.292969 -11.742188 14.421875 -12.125 13.910156 -12.507812 C 13.742188 -12.675781 13.570312 -12.761719 13.359375 -12.761719 C 13.101562 -12.761719 12.847656 -12.632812 12.59375 -12.507812 C 12.25 -12.378906 11.953125 -12.167969 11.699219 -11.910156 L 11.570312 -11.785156 C 11.230469 -11.441406 10.890625 -11.144531 10.421875 -11.144531 C 9.996094 -11.144531 9.527344 -11.484375 8.976562 -12.207031 C 8.636719 -12.675781 7.914062 -12.675781 7.1875 -12.71875 L 7.019531 -12.71875 C 5.316406 -12.71875 3.957031 -12.039062 2.679688 -10.675781 C 0.9375 -8.71875 -0.253906 -6.339844 -0.9375 -3.660156 L -1.019531 -3.359375 C -1.277344 -2.296875 -1.617188 -1.105469 -0.382812 -0.253906 C -0.0859375 -0.0429688 0.210938 0.0429688 0.511719 0.0429688 C 1.148438 0.0429688 1.703125 -0.425781 2.210938 -0.851562 L 2.550781 -1.148438 C 4.210938 -2.46875 5.574219 -4.082031 6.933594 -5.65625 C 7.53125 -6.382812 8.125 -7.105469 8.761719 -7.785156 C 8.890625 -7.953125 9.0625 -8.082031 9.1875 -8.253906 L 9.488281 -8.550781 L 9.570312 -8.421875 C 9.953125 -8.039062 10.125 -7.996094 10.210938 -7.996094 C 10.378906 -7.996094 10.378906 -8.378906 10.378906 -8.636719 L 10.378906 -8.761719 C 10.421875 -9.65625 10.890625 -10.335938 11.316406 -10.804688 C 11.316406 -10.804688 12.167969 -11.742188 12.71875 -11.742188 C 12.804688 -11.742188 12.890625 -11.699219 12.933594 -11.699219 C 13.058594 -11.613281 13.144531 -11.527344 13.1875 -11.402344 C 13.398438 -10.890625 12.890625 -10.039062 12.378906 -9.316406 C 12.292969 -9.1875 12.25 -9.0625 12.207031 -9.019531 C 11.996094 -8.59375 10.933594 -6.636719 10.933594 -6.636719 C 10.125 -5.148438 9.316406 -3.488281 8.804688 -1.660156 C 8.761719 -1.53125 8.71875 -1.402344 8.679688 -1.277344 C 8.421875 -0.636719 8.253906 -0.0429688 9.019531 0.59375 C 9.316406 0.851562 9.613281 0.976562 9.910156 0.976562 C 10.292969 0.976562 10.636719 0.765625 10.976562 0.59375 L 11.230469 0.425781 C 15.441406 -1.871094 19.015625 -4.59375 21.90625 -7.65625 C 22.078125 -7.828125 22.164062 -8.039062 22.121094 -8.167969 C 22.078125 -8.253906 21.992188 -8.253906 21.867188 -8.296875 Z M 9.402344 -9.910156 C 8.507812 -8.933594 7.65625 -7.871094 6.847656 -6.847656 C 5.105469 -4.722656 3.277344 -2.46875 0.808594 -0.976562 C 0.679688 -0.894531 0.554688 -0.851562 0.425781 -0.851562 C 0.296875 -0.851562 0.171875 -0.894531 0.0429688 -0.976562 C -0.339844 -1.359375 -0.253906 -2.296875 -0.210938 -2.59375 C -0.0429688 -3.234375 0.296875 -3.785156 0.59375 -4.296875 C 0.722656 -4.550781 0.851562 -4.765625 0.976562 -4.976562 C 2.128906 -7.148438 3.53125 -9.570312 6.039062 -11.058594 C 6.550781 -11.359375 7.1875 -11.570312 7.871094 -11.699219 C 7.953125 -11.742188 7.996094 -11.742188 8.082031 -11.742188 C 8.550781 -11.742188 9.0625 -11.441406 9.402344 -11.019531 C 9.699219 -10.59375 9.699219 -10.210938 9.402344 -9.910156 Z M 9.402344 -9.910156 "/></g></g></g><g fill="#000000" fill-opacity="1"><g transform="translate(245.181386, 221.213189)"><g><path d="M 18.546875 -6.59375 C 18.417969 -6.59375 18.292969 -6.507812 18.121094 -6.464844 C 18.035156 -6.421875 17.910156 -6.382812 17.824219 -6.339844 C 17.570312 -6.296875 17.3125 -6.253906 17.058594 -6.253906 C 15.484375 -6.253906 13.824219 -7.148438 12.632812 -8.59375 C 11.570312 -9.910156 10.890625 -10.550781 10.210938 -10.550781 C 9.785156 -10.550781 9.273438 -10.292969 8.464844 -9.699219 C 7.273438 -8.804688 6.167969 -7.871094 5.019531 -6.890625 L 3.234375 -5.402344 C 3.105469 -5.273438 2.976562 -5.148438 2.808594 -4.976562 C 2.46875 -4.636719 2.128906 -4.253906 1.574219 -4.125 L 1.445312 -4.125 L 1.402344 -4.210938 C 1.191406 -4.464844 1.785156 -5.785156 1.785156 -5.785156 C 2.085938 -6.339844 2.339844 -6.890625 2.59375 -7.445312 C 2.976562 -8.296875 3.316406 -9.1875 3.699219 -10.082031 L 4 -10.890625 C 4.042969 -10.976562 4.125 -11.101562 4.167969 -11.1875 C 4.296875 -11.484375 4.507812 -11.785156 4.382812 -12.082031 C 4.296875 -12.25 4.167969 -12.378906 3.957031 -12.507812 C 3.828125 -12.59375 3.699219 -12.632812 3.574219 -12.632812 C 3.234375 -12.632812 2.976562 -12.207031 2.765625 -11.910156 L 2.722656 -11.785156 C 1.019531 -9.019531 -0.339844 -5.914062 -1.488281 -2.296875 L -1.53125 -2.128906 C -1.703125 -1.660156 -1.871094 -1.148438 -1.234375 -0.679688 C -1.019531 -0.511719 -0.808594 -0.425781 -0.636719 -0.425781 C -0.339844 -0.425781 -0.171875 -0.679688 0 -0.9375 C 0.0859375 -1.019531 0.171875 -1.105469 0.253906 -1.191406 L 1.277344 -2.253906 C 3.53125 -4.59375 5.871094 -6.976562 8.550781 -8.890625 C 9.316406 -9.445312 9.742188 -9.742188 10.210938 -9.742188 C 10.804688 -9.742188 11.273438 -9.230469 12.292969 -8.039062 C 13.527344 -6.636719 15.355469 -5.742188 16.972656 -5.742188 C 17.613281 -5.742188 18.207031 -5.871094 18.675781 -6.167969 C 18.84375 -6.253906 18.886719 -6.382812 18.84375 -6.421875 C 18.84375 -6.464844 18.761719 -6.550781 18.546875 -6.59375 Z M 18.546875 -6.59375 "/></g></g></g><g fill="#000000" fill-opacity="1"><g transform="translate(261.048326, 221.213189)"><g><path d="M 24.503906 -20.886719 C 24.332031 -21.058594 23.992188 -21.058594 23.652344 -21.058594 C 23.566406 -21.101562 23.441406 -21.101562 23.355469 -21.101562 C 19.527344 -21.523438 16.207031 -21.738281 13.144531 -21.738281 L 9.402344 -21.738281 L 9.488281 -21.949219 C 10.550781 -24.164062 11.867188 -25.949219 13.101562 -27.652344 C 13.527344 -28.203125 13.910156 -28.757812 14.335938 -29.351562 C 14.71875 -29.90625 14.929688 -30.289062 14.378906 -30.757812 C 14.207031 -30.925781 14.039062 -31.011719 13.867188 -31.011719 C 13.613281 -31.011719 13.441406 -30.757812 13.230469 -30.542969 C 13.1875 -30.457031 13.144531 -30.375 13.058594 -30.332031 C 10.976562 -28.035156 9.359375 -25.695312 8.125 -23.183594 C 7.570312 -21.992188 6.636719 -21.738281 5.402344 -21.695312 C 4.167969 -21.695312 2.933594 -21.652344 1.703125 -21.652344 C 0.382812 -21.652344 -0.9375 -21.695312 -2.253906 -21.695312 C -3.574219 -21.695312 -4.890625 -21.738281 -6.210938 -21.738281 C -8.679688 -21.738281 -11.910156 -21.695312 -15.101562 -21.398438 L -15.230469 -21.398438 C -15.230469 -21.398438 -15.695312 -21.398438 -15.78125 -21.398438 C -16.164062 -21.398438 -16.25 -21.3125 -16.207031 -21.015625 C -16.121094 -20.84375 -16.082031 -20.71875 -15.953125 -20.589844 C -15.824219 -20.503906 -15.65625 -20.460938 -15.484375 -20.460938 C -15.273438 -20.460938 -15.058594 -20.503906 -14.847656 -20.546875 C -13.1875 -20.972656 -11.359375 -21.015625 -9.613281 -21.015625 C -8.933594 -21.015625 -8.210938 -21.015625 -7.53125 -21.058594 C -5.914062 -21.140625 -4.125 -21.140625 -1.957031 -21.140625 C -0.636719 -21.140625 0.679688 -21.140625 2.042969 -21.140625 C 3.316406 -21.140625 4.636719 -21.101562 5.914062 -21.101562 L 6 -21.101562 L 6.039062 -21.015625 C 6.550781 -20.25 6.382812 -19.953125 6.253906 -19.652344 C 5.785156 -18.71875 5.316406 -17.738281 4.847656 -16.761719 C 3.828125 -14.761719 2.808594 -12.675781 1.914062 -10.550781 L 1.703125 -9.996094 C -1.019531 -3.445312 -3.785156 3.316406 -4.464844 10.976562 L -4.507812 11.359375 C -4.59375 12.464844 -4.722656 13.65625 -4.339844 14.890625 C -3.957031 16.082031 -3.191406 16.632812 -1.957031 16.632812 L -1.914062 16.632812 C -1.660156 16.632812 -1.359375 16.546875 -1.445312 16.121094 C -1.445312 15.953125 -1.53125 15.824219 -1.617188 15.695312 C -1.703125 15.65625 -1.785156 15.613281 -1.871094 15.570312 C -2.425781 15.527344 -2.765625 15.355469 -3.019531 15.101562 C -3.359375 14.71875 -3.359375 14.25 -3.359375 13.78125 C -3.359375 13.65625 -3.359375 13.570312 -3.359375 13.441406 C -3.402344 10.675781 -3.019531 7.828125 -2.210938 4.550781 C -0.0859375 -3.785156 3.742188 -11.1875 7.445312 -18.378906 L 8.167969 -19.824219 C 8.550781 -20.546875 9.144531 -20.675781 10.039062 -20.675781 C 10.039062 -20.675781 10.039062 -20.675781 10.082031 -20.675781 C 10.804688 -20.675781 11.570312 -20.675781 12.292969 -20.675781 L 14.464844 -20.675781 C 17.355469 -20.675781 20.375 -20.632812 23.523438 -20.207031 L 23.695312 -20.207031 C 23.863281 -20.164062 24.078125 -20.121094 24.246094 -20.121094 C 24.671875 -20.121094 24.714844 -20.292969 24.671875 -20.460938 C 24.671875 -20.632812 24.628906 -20.800781 24.503906 -20.886719 Z M 24.503906 -20.886719 "/></g></g></g><g fill="#000000" fill-opacity="1"><g transform="translate(266.237952, 221.213189)"><g><path d="M 21.867188 -8.296875 C 21.695312 -8.296875 21.441406 -8.082031 21.269531 -7.953125 L 21.140625 -7.871094 C 20.757812 -7.65625 20.460938 -7.359375 20.121094 -7.105469 C 19.953125 -6.933594 19.78125 -6.804688 19.570312 -6.679688 C 19.183594 -6.382812 18.84375 -6.082031 18.460938 -5.785156 C 17.953125 -5.359375 17.441406 -4.933594 16.886719 -4.507812 C 15.230469 -3.316406 13.441406 -2 11.613281 -0.765625 C 11.359375 -0.59375 10.464844 -0.128906 9.871094 -0.128906 C 9.785156 -0.128906 9.699219 -0.128906 9.613281 -0.171875 C 9.488281 -0.210938 9.402344 -0.253906 9.359375 -0.382812 C 9.273438 -0.511719 9.273438 -0.722656 9.359375 -1.019531 L 9.613281 -1.617188 C 9.828125 -2.296875 10.082031 -2.976562 10.378906 -3.617188 L 11.144531 -5.191406 C 12.125 -7.1875 13.101562 -9.230469 14.039062 -11.273438 C 14.292969 -11.742188 14.421875 -12.125 13.910156 -12.507812 C 13.742188 -12.675781 13.570312 -12.761719 13.359375 -12.761719 C 13.101562 -12.761719 12.847656 -12.632812 12.59375 -12.507812 C 12.25 -12.378906 11.953125 -12.167969 11.699219 -11.910156 L 11.570312 -11.785156 C 11.230469 -11.441406 10.890625 -11.144531 10.421875 -11.144531 C 9.996094 -11.144531 9.527344 -11.484375 8.976562 -12.207031 C 8.636719 -12.675781 7.914062 -12.675781 7.1875 -12.71875 L 7.019531 -12.71875 C 5.316406 -12.71875 3.957031 -12.039062 2.679688 -10.675781 C 0.9375 -8.71875 -0.253906 -6.339844 -0.9375 -3.660156 L -1.019531 -3.359375 C -1.277344 -2.296875 -1.617188 -1.105469 -0.382812 -0.253906 C -0.0859375 -0.0429688 0.210938 0.0429688 0.511719 0.0429688 C 1.148438 0.0429688 1.703125 -0.425781 2.210938 -0.851562 L 2.550781 -1.148438 C 4.210938 -2.46875 5.574219 -4.082031 6.933594 -5.65625 C 7.53125 -6.382812 8.125 -7.105469 8.761719 -7.785156 C 8.890625 -7.953125 9.0625 -8.082031 9.1875 -8.253906 L 9.488281 -8.550781 L 9.570312 -8.421875 C 9.953125 -8.039062 10.125 -7.996094 10.210938 -7.996094 C 10.378906 -7.996094 10.378906 -8.378906 10.378906 -8.636719 L 10.378906 -8.761719 C 10.421875 -9.65625 10.890625 -10.335938 11.316406 -10.804688 C 11.316406 -10.804688 12.167969 -11.742188 12.71875 -11.742188 C 12.804688 -11.742188 12.890625 -11.699219 12.933594 -11.699219 C 13.058594 -11.613281 13.144531 -11.527344 13.1875 -11.402344 C 13.398438 -10.890625 12.890625 -10.039062 12.378906 -9.316406 C 12.292969 -9.1875 12.25 -9.0625 12.207031 -9.019531 C 11.996094 -8.59375 10.933594 -6.636719 10.933594 -6.636719 C 10.125 -5.148438 9.316406 -3.488281 8.804688 -1.660156 C 8.761719 -1.53125 8.71875 -1.402344 8.679688 -1.277344 C 8.421875 -0.636719 8.253906 -0.0429688 9.019531 0.59375 C 9.316406 0.851562 9.613281 0.976562 9.910156 0.976562 C 10.292969 0.976562 10.636719 0.765625 10.976562 0.59375 L 11.230469 0.425781 C 15.441406 -1.871094 19.015625 -4.59375 21.90625 -7.65625 C 22.078125 -7.828125 22.164062 -8.039062 22.121094 -8.167969 C 22.078125 -8.253906 21.992188 -8.253906 21.867188 -8.296875 Z M 9.402344 -9.910156 C 8.507812 -8.933594 7.65625 -7.871094 6.847656 -6.847656 C 5.105469 -4.722656 3.277344 -2.46875 0.808594 -0.976562 C 0.679688 -0.894531 0.554688 -0.851562 0.425781 -0.851562 C 0.296875 -0.851562 0.171875 -0.894531 0.0429688 -0.976562 C -0.339844 -1.359375 -0.253906 -2.296875 -0.210938 -2.59375 C -0.0429688 -3.234375 0.296875 -3.785156 0.59375 -4.296875 C 0.722656 -4.550781 0.851562 -4.765625 0.976562 -4.976562 C 2.128906 -7.148438 3.53125 -9.570312 6.039062 -11.058594 C 6.550781 -11.359375 7.1875 -11.570312 7.871094 -11.699219 C 7.953125 -11.742188 7.996094 -11.742188 8.082031 -11.742188 C 8.550781 -11.742188 9.0625 -11.441406 9.402344 -11.019531 C 9.699219 -10.59375 9.699219 -10.210938 9.402344 -9.910156 Z M 9.402344 -9.910156 "/></g></g></g><g fill="#000000" fill-opacity="1"><g transform="translate(284.827396, 221.213189)"><g/></g></g><g fill="#000000" fill-opacity="1"><g transform="translate(295.462036, 221.213189)"><g><path d="M 4 6.507812 C 4.808594 6.507812 5.0625 5.699219 5.359375 4.976562 C 5.445312 4.765625 5.53125 4.59375 5.574219 4.425781 C 6.339844 2.765625 7.105469 1.0625 7.828125 -0.59375 C 10.933594 -7.53125 21.3125 -27.992188 25.226562 -34.542969 L 25.738281 -35.394531 C 29.394531 -41.433594 33.179688 -47.730469 39.136719 -52.027344 C 39.5625 -52.324219 39.773438 -52.535156 39.390625 -53.003906 C 39.136719 -53.34375 38.882812 -53.386719 38.667969 -53.386719 C 38.5 -53.386719 38.328125 -53.34375 38.242188 -53.261719 C 37.050781 -52.453125 36.203125 -51.730469 35.476562 -50.964844 C 28.117188 -43.179688 15.824219 -20.164062 11.65625 -11.742188 C 10.125 -8.679688 8.71875 -5.617188 7.273438 -2.46875 C 6.847656 -1.53125 6.421875 -0.554688 6 0.679688 L 5.871094 1.019531 C 5.617188 1.742188 5.273438 2.765625 4.425781 2.976562 L 4.339844 2.976562 L 4.253906 2.894531 C 4.125 2.722656 4.082031 2.59375 4.082031 2.46875 C 3.957031 1.277344 4 0.171875 4.082031 -0.9375 L 4.082031 -1.914062 C 4.210938 -4.890625 4.339844 -7.871094 4.464844 -10.847656 C 4.808594 -18.675781 5.148438 -26.757812 4.933594 -34.882812 C 4.933594 -35.054688 4.933594 -35.222656 4.933594 -35.394531 C 4.976562 -35.777344 5.019531 -36.203125 4.847656 -36.457031 C 4.722656 -36.585938 4.59375 -36.710938 4.339844 -36.753906 C 4.210938 -36.796875 4.125 -36.839844 4.042969 -36.839844 C 3.617188 -36.839844 3.574219 -36.371094 3.574219 -35.734375 C 3.574219 -35.605469 3.574219 -35.4375 3.574219 -35.351562 C 2.722656 -23.226562 1.957031 -10.167969 2.042969 3.019531 C 2.042969 3.191406 2.042969 3.359375 2.042969 3.574219 C 2 4.679688 1.957031 5.785156 3.359375 6.339844 C 3.574219 6.464844 3.828125 6.507812 4 6.507812 Z M 4 6.507812 "/></g></g></g><g fill="#000000" fill-opacity="1"><g transform="translate(309.116942, 221.213189)"><g><path d="M 14.507812 -6.253906 C 14.335938 -6.125 14.164062 -5.957031 13.996094 -5.785156 C 13.867188 -5.699219 13.78125 -5.574219 13.65625 -5.488281 C 12.976562 -4.890625 12.335938 -4.425781 11.65625 -3.957031 C 10.167969 -2.933594 8.679688 -2.253906 7.1875 -1.828125 C 6.210938 -1.53125 5.402344 -1.359375 4.464844 -1.359375 C 3.914062 -1.359375 3.402344 -1.402344 2.851562 -1.574219 C 2.167969 -1.742188 1.703125 -2.085938 1.402344 -2.511719 C 1.148438 -2.851562 1.0625 -3.234375 1.148438 -3.617188 L 1.234375 -3.914062 C 1.488281 -5.230469 1.785156 -6.636719 3.699219 -6.933594 C 6.339844 -7.316406 8.125 -8.167969 9.316406 -9.613281 C 9.828125 -10.253906 10.210938 -10.847656 9.570312 -11.742188 C 9.144531 -12.335938 8.550781 -12.632812 7.871094 -12.632812 C 7.65625 -12.632812 7.445312 -12.632812 7.1875 -12.550781 C 2.976562 -11.441406 0.425781 -8.890625 -0.339844 -5.0625 C -0.59375 -3.914062 -0.339844 -2.851562 0.382812 -2.042969 C 1.148438 -1.234375 2.296875 -0.765625 3.699219 -0.722656 L 3.914062 -0.722656 C 8.296875 -0.722656 11.402344 -3.148438 14.378906 -5.488281 L 14.675781 -5.699219 C 14.890625 -5.871094 15.273438 -6.167969 15.1875 -6.464844 C 14.972656 -6.464844 14.71875 -6.382812 14.507812 -6.253906 Z M 4.167969 -8.421875 C 5.445312 -9.953125 6.804688 -10.636719 8.507812 -11.144531 L 8.890625 -11.273438 L 8.679688 -10.933594 C 7.65625 -9.273438 6.339844 -8.679688 4.339844 -8.210938 L 3.914062 -8.125 Z M 4.167969 -8.421875 "/></g></g></g><g fill="#000000" fill-opacity="1"><g transform="translate(321.495683, 221.213189)"><g><path d="M 18.121094 -36.839844 C 17.867188 -37.050781 17.695312 -37.136719 17.484375 -37.136719 C 17.144531 -37.136719 16.929688 -36.839844 16.675781 -36.542969 C 16.632812 -36.457031 16.546875 -36.328125 16.464844 -36.242188 C 11.953125 -31.351562 9.105469 -25.269531 6.125 -19.226562 C 0.851562 -8.59375 -4.464844 2.933594 -5.574219 15.65625 L -5.617188 16.121094 C -5.742188 17.527344 -5.871094 19.015625 -5.402344 20.546875 C -4.976562 22.035156 -4 22.757812 -2.425781 22.757812 L -2.339844 22.757812 C -2.042969 22.757812 -1.703125 22.671875 -1.742188 22.121094 C -1.785156 21.949219 -1.871094 21.738281 -2 21.609375 C -2.085938 21.523438 -2.210938 21.484375 -2.339844 21.441406 C -2.976562 21.355469 -3.488281 21.183594 -3.785156 20.84375 C -4.210938 20.375 -4.167969 19.738281 -4.167969 19.183594 C -4.167969 19.015625 -4.167969 18.886719 -4.167969 18.761719 C -4.253906 15.273438 -3.785156 11.742188 -2.722656 7.570312 C 0.253906 -4.296875 5.445312 -15.484375 11.699219 -25.609375 C 13.101562 -27.90625 14.546875 -30.117188 16.082031 -32.289062 C 16.121094 -32.371094 16.164062 -32.414062 16.164062 -32.457031 C 16.804688 -33.351562 17.398438 -34.246094 18.078125 -35.054688 C 18.546875 -35.734375 18.800781 -36.242188 18.121094 -36.839844 Z M 18.121094 -36.839844 "/></g></g></g><g fill="#000000" fill-opacity="1"><g transform="translate(327.451017, 221.213189)"><g><path d="M 21.867188 -8.296875 C 21.695312 -8.296875 21.441406 -8.082031 21.269531 -7.953125 L 21.140625 -7.871094 C 20.757812 -7.65625 20.460938 -7.359375 20.121094 -7.105469 C 19.953125 -6.933594 19.78125 -6.804688 19.570312 -6.679688 C 19.183594 -6.382812 18.84375 -6.082031 18.460938 -5.785156 C 17.953125 -5.359375 17.441406 -4.933594 16.886719 -4.507812 C 15.230469 -3.316406 13.441406 -2 11.613281 -0.765625 C 11.359375 -0.59375 10.464844 -0.128906 9.871094 -0.128906 C 9.785156 -0.128906 9.699219 -0.128906 9.613281 -0.171875 C 9.488281 -0.210938 9.402344 -0.253906 9.359375 -0.382812 C 9.273438 -0.511719 9.273438 -0.722656 9.359375 -1.019531 L 9.613281 -1.617188 C 9.828125 -2.296875 10.082031 -2.976562 10.378906 -3.617188 L 11.144531 -5.191406 C 12.125 -7.1875 13.101562 -9.230469 14.039062 -11.273438 C 14.292969 -11.742188 14.421875 -12.125 13.910156 -12.507812 C 13.742188 -12.675781 13.570312 -12.761719 13.359375 -12.761719 C 13.101562 -12.761719 12.847656 -12.632812 12.59375 -12.507812 C 12.25 -12.378906 11.953125 -12.167969 11.699219 -11.910156 L 11.570312 -11.785156 C 11.230469 -11.441406 10.890625 -11.144531 10.421875 -11.144531 C 9.996094 -11.144531 9.527344 -11.484375 8.976562 -12.207031 C 8.636719 -12.675781 7.914062 -12.675781 7.1875 -12.71875 L 7.019531 -12.71875 C 5.316406 -12.71875 3.957031 -12.039062 2.679688 -10.675781 C 0.9375 -8.71875 -0.253906 -6.339844 -0.9375 -3.660156 L -1.019531 -3.359375 C -1.277344 -2.296875 -1.617188 -1.105469 -0.382812 -0.253906 C -0.0859375 -0.0429688 0.210938 0.0429688 0.511719 0.0429688 C 1.148438 0.0429688 1.703125 -0.425781 2.210938 -0.851562 L 2.550781 -1.148438 C 4.210938 -2.46875 5.574219 -4.082031 6.933594 -5.65625 C 7.53125 -6.382812 8.125 -7.105469 8.761719 -7.785156 C 8.890625 -7.953125 9.0625 -8.082031 9.1875 -8.253906 L 9.488281 -8.550781 L 9.570312 -8.421875 C 9.953125 -8.039062 10.125 -7.996094 10.210938 -7.996094 C 10.378906 -7.996094 10.378906 -8.378906 10.378906 -8.636719 L 10.378906 -8.761719 C 10.421875 -9.65625 10.890625 -10.335938 11.316406 -10.804688 C 11.316406 -10.804688 12.167969 -11.742188 12.71875 -11.742188 C 12.804688 -11.742188 12.890625 -11.699219 12.933594 -11.699219 C 13.058594 -11.613281 13.144531 -11.527344 13.1875 -11.402344 C 13.398438 -10.890625 12.890625 -10.039062 12.378906 -9.316406 C 12.292969 -9.1875 12.25 -9.0625 12.207031 -9.019531 C 11.996094 -8.59375 10.933594 -6.636719 10.933594 -6.636719 C 10.125 -5.148438 9.316406 -3.488281 8.804688 -1.660156 C 8.761719 -1.53125 8.71875 -1.402344 8.679688 -1.277344 C 8.421875 -0.636719 8.253906 -0.0429688 9.019531 0.59375 C 9.316406 0.851562 9.613281 0.976562 9.910156 0.976562 C 10.292969 0.976562 10.636719 0.765625 10.976562 0.59375 L 11.230469 0.425781 C 15.441406 -1.871094 19.015625 -4.59375 21.90625 -7.65625 C 22.078125 -7.828125 22.164062 -8.039062 22.121094 -8.167969 C 22.078125 -8.253906 21.992188 -8.253906 21.867188 -8.296875 Z M 9.402344 -9.910156 C 8.507812 -8.933594 7.65625 -7.871094 6.847656 -6.847656 C 5.105469 -4.722656 3.277344 -2.46875 0.808594 -0.976562 C 0.679688 -0.894531 0.554688 -0.851562 0.425781 -0.851562 C 0.296875 -0.851562 0.171875 -0.894531 0.0429688 -0.976562 C -0.339844 -1.359375 -0.253906 -2.296875 -0.210938 -2.59375 C -0.0429688 -3.234375 0.296875 -3.785156 0.59375 -4.296875 C 0.722656 -4.550781 0.851562 -4.765625 0.976562 -4.976562 C 2.128906 -7.148438 3.53125 -9.570312 6.039062 -11.058594 C 6.550781 -11.359375 7.1875 -11.570312 7.871094 -11.699219 C 7.953125 -11.742188 7.996094 -11.742188 8.082031 -11.742188 C 8.550781 -11.742188 9.0625 -11.441406 9.402344 -11.019531 C 9.699219 -10.59375 9.699219 -10.210938 9.402344 -9.910156 Z M 9.402344 -9.910156 "/></g></g></g><g fill="#000000" fill-opacity="1"><g transform="translate(172.064334, 155.030087)"><g><path d="M 2.578125 0.125 C 2.296875 0.125 2.050781 0.0859375 1.84375 0.015625 C 1.59375 -0.0546875 1.46875 -0.257812 1.46875 -0.59375 L 1.46875 -13.375 C 1.46875 -13.625 1.425781 -14 1.34375 -14.5 C 1.238281 -14.957031 1.1875 -15.332031 1.1875 -15.625 L 1.1875 -15.6875 C 1.4375 -16.09375 1.617188 -16.359375 1.734375 -16.484375 C 1.941406 -16.484375 2.210938 -16.507812 2.546875 -16.5625 C 2.859375 -16.625 3.128906 -16.65625 3.359375 -16.65625 C 3.597656 -16.65625 3.828125 -16.582031 4.046875 -16.4375 C 4.265625 -16.300781 4.375 -16.140625 4.375 -15.953125 C 4.375 -15.515625 4.035156 -15.296875 3.359375 -15.296875 L 3.0625 -15.296875 C 2.96875 -15.304688 2.863281 -15.3125 2.75 -15.3125 C 2.613281 -15.3125 2.535156 -15.304688 2.515625 -15.296875 C 2.515625 -14.796875 2.539062 -14.191406 2.59375 -13.484375 L 2.640625 -12.875 L 2.6875 -11.65625 C 2.6875 -11.375 2.664062 -10.953125 2.625 -10.390625 L 2.578125 -9.15625 L 2.875 -9.21875 C 3.175781 -9.300781 3.421875 -9.34375 3.609375 -9.34375 C 3.765625 -9.34375 3.910156 -9.28125 4.046875 -9.15625 C 4.179688 -9.03125 4.25 -8.890625 4.25 -8.734375 C 4.25 -8.554688 4.191406 -8.394531 4.078125 -8.25 C 3.972656 -8.113281 3.835938 -8.046875 3.671875 -8.046875 L 3.40625 -8.078125 L 3.125 -8.078125 C 2.90625 -8.078125 2.75 -8.023438 2.65625 -7.921875 L 2.65625 -1.125 L 3.890625 -1.1875 C 4.722656 -1.1875 5.140625 -0.992188 5.140625 -0.609375 L 5.140625 -0.53125 C 5.054688 -0.351562 4.894531 -0.207031 4.65625 -0.09375 C 4.425781 0.0078125 4.203125 0.078125 3.984375 0.109375 L 3.25 0.125 Z M 2.578125 0.125 "/></g></g></g><g fill="#000000" fill-opacity="1"><g transform="translate(183.107203, 155.030087)"><g><path d="M 1.734375 0.3125 C 1.472656 0.257812 1.25 0.160156 1.0625 0.015625 C 0.882812 -0.128906 0.78125 -0.316406 0.75 -0.546875 L 0.984375 -0.921875 C 1.078125 -0.921875 1.21875 -0.894531 1.40625 -0.84375 C 1.625 -0.789062 1.789062 -0.765625 1.90625 -0.765625 C 2.175781 -0.765625 2.414062 -0.878906 2.625 -1.109375 C 2.84375 -1.347656 3.003906 -1.660156 3.109375 -2.046875 C 3.296875 -2.753906 3.390625 -3.382812 3.390625 -3.9375 C 3.390625 -4.90625 3.082031 -5.925781 2.46875 -7 L 2.21875 -7.40625 C 1.9375 -7.894531 1.703125 -8.328125 1.515625 -8.703125 C 1.328125 -9.085938 1.164062 -9.5 1.03125 -9.9375 C 0.851562 -10.507812 0.765625 -11.082031 0.765625 -11.65625 C 0.765625 -12.300781 0.910156 -12.976562 1.203125 -13.6875 C 1.359375 -14.019531 1.570312 -14.289062 1.84375 -14.5 C 2.113281 -14.71875 2.414062 -14.828125 2.75 -14.828125 C 3.007812 -14.828125 3.253906 -14.742188 3.484375 -14.578125 C 3.710938 -14.410156 3.828125 -14.207031 3.828125 -13.96875 C 3.828125 -13.832031 3.773438 -13.726562 3.671875 -13.65625 C 3.566406 -13.582031 3.441406 -13.546875 3.296875 -13.546875 C 3.140625 -13.546875 2.988281 -13.59375 2.84375 -13.6875 C 2.519531 -13.664062 2.257812 -13.378906 2.0625 -12.828125 C 1.90625 -12.316406 1.828125 -11.890625 1.828125 -11.546875 C 1.828125 -11.117188 1.890625 -10.6875 2.015625 -10.25 C 2.148438 -9.820312 2.320312 -9.4375 2.53125 -9.09375 L 3.015625 -8.203125 L 3.78125 -6.75 C 3.988281 -6.34375 4.15625 -5.867188 4.28125 -5.328125 C 4.40625 -4.785156 4.46875 -4.234375 4.46875 -3.671875 C 4.46875 -2.773438 4.257812 -1.925781 3.84375 -1.125 C 3.644531 -0.707031 3.359375 -0.375 2.984375 -0.125 C 2.609375 0.113281 2.191406 0.234375 1.734375 0.234375 Z M 1.734375 0.3125 "/></g></g></g><g fill="#000000" fill-opacity="1"><g transform="translate(193.4682, 155.030087)"><g><path d="M 2.578125 -0.359375 L 2.546875 -1.203125 C 2.535156 -1.453125 2.53125 -1.734375 2.53125 -2.046875 L 2.546875 -2.796875 C 2.503906 -2.953125 2.394531 -4.554688 2.21875 -7.609375 C 2.039062 -10.660156 1.9375 -12.617188 1.90625 -13.484375 C 1.0625 -13.515625 0.519531 -13.601562 0.28125 -13.75 C 0.125 -13.863281 0.046875 -13.992188 0.046875 -14.140625 C 0.046875 -14.265625 0.117188 -14.375 0.265625 -14.46875 C 0.421875 -14.5625 0.582031 -14.609375 0.75 -14.609375 C 1.15625 -14.609375 1.65625 -14.578125 2.25 -14.515625 C 2.800781 -14.441406 3.296875 -14.40625 3.734375 -14.40625 L 4.09375 -14.40625 C 4.550781 -14.40625 4.78125 -14.226562 4.78125 -13.875 C 4.78125 -13.707031 4.703125 -13.566406 4.546875 -13.453125 C 4.398438 -13.335938 4.234375 -13.28125 4.046875 -13.28125 C 3.910156 -13.28125 3.71875 -13.304688 3.46875 -13.359375 L 3.03125 -13.4375 L 3.015625 -13.328125 L 2.984375 -13.21875 C 2.984375 -11.914062 3.109375 -9.832031 3.359375 -6.96875 C 3.597656 -4.289062 3.71875 -2.207031 3.71875 -0.71875 C 3.71875 -0.550781 3.640625 -0.398438 3.484375 -0.265625 C 3.328125 -0.128906 3.15625 -0.0625 2.96875 -0.0625 Z M 2.578125 -0.359375 "/></g></g></g><g fill="#000000" fill-opacity="1"><g transform="translate(204.027156, 155.030087)"><g><path d="M 2.4375 -0.015625 C 1.164062 -0.015625 0.53125 -0.238281 0.53125 -0.6875 C 0.53125 -1.03125 0.753906 -1.203125 1.203125 -1.203125 L 1.453125 -1.203125 L 1.671875 -1.1875 C 1.785156 -1.1875 1.863281 -1.222656 1.90625 -1.296875 C 1.957031 -1.367188 1.984375 -1.5 1.984375 -1.6875 C 1.984375 -1.9375 1.96875 -2.328125 1.9375 -2.859375 C 1.894531 -3.210938 1.84375 -3.84375 1.78125 -4.75 C 1.644531 -7 1.578125 -8.691406 1.578125 -9.828125 C 1.578125 -10.242188 1.585938 -10.617188 1.609375 -10.953125 L 1.625 -12.078125 C 1.625 -12.554688 1.601562 -12.957031 1.5625 -13.28125 C 1.320312 -13.226562 1.15625 -13.203125 1.0625 -13.203125 C 0.707031 -13.203125 0.53125 -13.378906 0.53125 -13.734375 C 0.53125 -13.898438 0.640625 -14.050781 0.859375 -14.1875 C 1.078125 -14.320312 1.351562 -14.414062 1.6875 -14.46875 C 2.28125 -14.59375 2.800781 -14.65625 3.25 -14.65625 C 3.425781 -14.65625 3.578125 -14.59375 3.703125 -14.46875 C 3.828125 -14.34375 3.890625 -14.195312 3.890625 -14.03125 C 3.890625 -13.875 3.84375 -13.734375 3.75 -13.609375 C 3.65625 -13.492188 3.535156 -13.4375 3.390625 -13.4375 C 3.296875 -13.4375 3.222656 -13.445312 3.171875 -13.46875 L 2.984375 -13.46875 C 2.835938 -13.46875 2.734375 -13.429688 2.671875 -13.359375 C 2.609375 -13.296875 2.578125 -13.175781 2.578125 -13 C 2.578125 -11.582031 2.664062 -9.441406 2.84375 -6.578125 C 2.863281 -6.046875 2.921875 -5.269531 3.015625 -4.25 C 3.085938 -3.570312 3.125 -2.878906 3.125 -2.171875 L 3.125 -1.34375 C 3.207031 -1.351562 3.351562 -1.359375 3.5625 -1.359375 C 4.175781 -1.359375 4.484375 -1.101562 4.484375 -0.59375 L 4.484375 -0.46875 L 3.9375 -0.09375 C 3.925781 -0.09375 3.878906 -0.0859375 3.796875 -0.078125 C 3.710938 -0.0664062 3.5625 -0.0625 3.34375 -0.0625 C 2.875 -0.03125 2.570312 -0.015625 2.4375 -0.015625 Z M 2.4375 -0.015625 "/></g></g></g><g fill="#000000" fill-opacity="1"><g transform="translate(213.926235, 155.030087)"><g><path d="M 4.734375 0.359375 C 4.203125 0.179688 3.546875 0.09375 2.765625 0.09375 C 2.535156 0.238281 2.289062 0.3125 2.03125 0.3125 C 1.851562 0.3125 1.703125 0.234375 1.578125 0.078125 C 1.453125 -0.078125 1.390625 -0.242188 1.390625 -0.421875 C 1.390625 -1.648438 1.441406 -3.289062 1.546875 -5.34375 C 1.628906 -7.53125 1.671875 -9.164062 1.671875 -10.25 L 1.671875 -10.40625 C 1.585938 -11.332031 1.546875 -12.019531 1.546875 -12.46875 C 1.546875 -13.863281 1.800781 -14.5625 2.3125 -14.5625 C 2.457031 -14.5625 2.582031 -14.503906 2.6875 -14.390625 C 2.800781 -14.285156 2.859375 -14.160156 2.859375 -14.015625 C 2.859375 -13.835938 2.835938 -13.554688 2.796875 -13.171875 C 2.753906 -12.804688 2.734375 -12.53125 2.734375 -12.34375 C 2.734375 -11.363281 2.738281 -10.476562 2.75 -9.6875 C 2.757812 -8.90625 2.765625 -8.023438 2.765625 -7.046875 C 2.691406 -6.816406 2.65625 -6.503906 2.65625 -6.109375 L 2.65625 -5.859375 L 2.625 -4.109375 C 2.59375 -3.597656 2.578125 -3.015625 2.578125 -2.359375 C 2.578125 -1.347656 2.816406 -0.84375 3.296875 -0.84375 C 3.328125 -0.84375 3.375 -0.84375 3.4375 -0.84375 C 3.507812 -0.851562 3.601562 -0.859375 3.71875 -0.859375 C 3.851562 -0.867188 4.019531 -0.875 4.21875 -0.875 C 5.007812 -0.875 5.40625 -0.65625 5.40625 -0.21875 C 5.40625 -0.0703125 5.335938 0.0507812 5.203125 0.15625 C 5.078125 0.257812 4.921875 0.328125 4.734375 0.359375 Z M 4.734375 0.359375 "/></g></g></g><g fill="#000000" fill-opacity="1"><g transform="translate(224.749152, 155.030087)"><g><path d="M 2.4375 -0.015625 C 1.164062 -0.015625 0.53125 -0.238281 0.53125 -0.6875 C 0.53125 -1.03125 0.753906 -1.203125 1.203125 -1.203125 L 1.453125 -1.203125 L 1.671875 -1.1875 C 1.785156 -1.1875 1.863281 -1.222656 1.90625 -1.296875 C 1.957031 -1.367188 1.984375 -1.5 1.984375 -1.6875 C 1.984375 -1.9375 1.96875 -2.328125 1.9375 -2.859375 C 1.894531 -3.210938 1.84375 -3.84375 1.78125 -4.75 C 1.644531 -7 1.578125 -8.691406 1.578125 -9.828125 C 1.578125 -10.242188 1.585938 -10.617188 1.609375 -10.953125 L 1.625 -12.078125 C 1.625 -12.554688 1.601562 -12.957031 1.5625 -13.28125 C 1.320312 -13.226562 1.15625 -13.203125 1.0625 -13.203125 C 0.707031 -13.203125 0.53125 -13.378906 0.53125 -13.734375 C 0.53125 -13.898438 0.640625 -14.050781 0.859375 -14.1875 C 1.078125 -14.320312 1.351562 -14.414062 1.6875 -14.46875 C 2.28125 -14.59375 2.800781 -14.65625 3.25 -14.65625 C 3.425781 -14.65625 3.578125 -14.59375 3.703125 -14.46875 C 3.828125 -14.34375 3.890625 -14.195312 3.890625 -14.03125 C 3.890625 -13.875 3.84375 -13.734375 3.75 -13.609375 C 3.65625 -13.492188 3.535156 -13.4375 3.390625 -13.4375 C 3.296875 -13.4375 3.222656 -13.445312 3.171875 -13.46875 L 2.984375 -13.46875 C 2.835938 -13.46875 2.734375 -13.429688 2.671875 -13.359375 C 2.609375 -13.296875 2.578125 -13.175781 2.578125 -13 C 2.578125 -11.582031 2.664062 -9.441406 2.84375 -6.578125 C 2.863281 -6.046875 2.921875 -5.269531 3.015625 -4.25 C 3.085938 -3.570312 3.125 -2.878906 3.125 -2.171875 L 3.125 -1.34375 C 3.207031 -1.351562 3.351562 -1.359375 3.5625 -1.359375 C 4.175781 -1.359375 4.484375 -1.101562 4.484375 -0.59375 L 4.484375 -0.46875 L 3.9375 -0.09375 C 3.925781 -0.09375 3.878906 -0.0859375 3.796875 -0.078125 C 3.710938 -0.0664062 3.5625 -0.0625 3.34375 -0.0625 C 2.875 -0.03125 2.570312 -0.015625 2.4375 -0.015625 Z M 2.4375 -0.015625 "/></g></g></g><g fill="#000000" fill-opacity="1"><g transform="translate(234.648234, 155.030087)"><g><path d="M 1.734375 0.3125 C 1.472656 0.257812 1.25 0.160156 1.0625 0.015625 C 0.882812 -0.128906 0.78125 -0.316406 0.75 -0.546875 L 0.984375 -0.921875 C 1.078125 -0.921875 1.21875 -0.894531 1.40625 -0.84375 C 1.625 -0.789062 1.789062 -0.765625 1.90625 -0.765625 C 2.175781 -0.765625 2.414062 -0.878906 2.625 -1.109375 C 2.84375 -1.347656 3.003906 -1.660156 3.109375 -2.046875 C 3.296875 -2.753906 3.390625 -3.382812 3.390625 -3.9375 C 3.390625 -4.90625 3.082031 -5.925781 2.46875 -7 L 2.21875 -7.40625 C 1.9375 -7.894531 1.703125 -8.328125 1.515625 -8.703125 C 1.328125 -9.085938 1.164062 -9.5 1.03125 -9.9375 C 0.851562 -10.507812 0.765625 -11.082031 0.765625 -11.65625 C 0.765625 -12.300781 0.910156 -12.976562 1.203125 -13.6875 C 1.359375 -14.019531 1.570312 -14.289062 1.84375 -14.5 C 2.113281 -14.71875 2.414062 -14.828125 2.75 -14.828125 C 3.007812 -14.828125 3.253906 -14.742188 3.484375 -14.578125 C 3.710938 -14.410156 3.828125 -14.207031 3.828125 -13.96875 C 3.828125 -13.832031 3.773438 -13.726562 3.671875 -13.65625 C 3.566406 -13.582031 3.441406 -13.546875 3.296875 -13.546875 C 3.140625 -13.546875 2.988281 -13.59375 2.84375 -13.6875 C 2.519531 -13.664062 2.257812 -13.378906 2.0625 -12.828125 C 1.90625 -12.316406 1.828125 -11.890625 1.828125 -11.546875 C 1.828125 -11.117188 1.890625 -10.6875 2.015625 -10.25 C 2.148438 -9.820312 2.320312 -9.4375 2.53125 -9.09375 L 3.015625 -8.203125 L 3.78125 -6.75 C 3.988281 -6.34375 4.15625 -5.867188 4.28125 -5.328125 C 4.40625 -4.785156 4.46875 -4.234375 4.46875 -3.671875 C 4.46875 -2.773438 4.257812 -1.925781 3.84375 -1.125 C 3.644531 -0.707031 3.359375 -0.375 2.984375 -0.125 C 2.609375 0.113281 2.191406 0.234375 1.734375 0.234375 Z M 1.734375 0.3125 "/></g></g></g><g fill="#000000" fill-opacity="1"><g transform="translate(245.009233, 155.030087)"><g><path d="M 10.203125 1.140625 C 9.753906 1.140625 9.53125 0.6875 9.53125 -0.21875 L 9.53125 -3.03125 C 9.53125 -3.769531 9.476562 -4.734375 9.375 -5.921875 C 9.257812 -7.253906 9.203125 -8.171875 9.203125 -8.671875 L 9.234375 -10.03125 C 9.265625 -10.425781 9.28125 -10.875 9.28125 -11.375 C 9.226562 -11.1875 8.988281 -10.175781 8.5625 -8.34375 C 8.132812 -6.5625 7.691406 -4.914062 7.234375 -3.40625 C 6.796875 -1.957031 6.4375 -1.234375 6.15625 -1.234375 C 5.875 -1.234375 5.648438 -1.316406 5.484375 -1.484375 C 5.316406 -1.648438 5.234375 -1.878906 5.234375 -2.171875 C 5.234375 -2.816406 4.972656 -4.1875 4.453125 -6.28125 C 3.929688 -8.382812 3.457031 -10.101562 3.03125 -11.4375 L 2.90625 -8.953125 C 2.789062 -6.859375 2.707031 -5.113281 2.65625 -3.71875 C 2.632812 -2.363281 2.625 -1.441406 2.625 -0.953125 C 2.625 -0.828125 2.628906 -0.710938 2.640625 -0.609375 L 2.640625 -0.3125 C 2.640625 -0.0625 2.585938 0.125 2.484375 0.25 C 2.378906 0.375 2.1875 0.4375 1.90625 0.4375 C 1.757812 0.4375 1.617188 0.378906 1.484375 0.265625 C 1.359375 0.160156 1.296875 0.0390625 1.296875 -0.09375 C 1.296875 -1.582031 1.40625 -3.820312 1.625 -6.8125 C 1.84375 -9.8125 1.953125 -12.054688 1.953125 -13.546875 C 1.867188 -13.679688 1.828125 -13.820312 1.828125 -13.96875 C 1.828125 -14.144531 1.910156 -14.28125 2.078125 -14.375 C 2.242188 -14.46875 2.445312 -14.515625 2.6875 -14.515625 C 2.875 -14.515625 3.222656 -13.828125 3.734375 -12.453125 C 4.253906 -11.078125 4.769531 -9.515625 5.28125 -7.765625 C 5.789062 -6.015625 6.117188 -4.753906 6.265625 -3.984375 C 6.390625 -4.378906 6.488281 -4.742188 6.5625 -5.078125 L 6.6875 -5.609375 C 7.15625 -7.660156 7.625 -9.515625 8.09375 -11.171875 C 8.375 -12.179688 8.644531 -12.972656 8.90625 -13.546875 C 9.175781 -14.160156 9.421875 -14.46875 9.640625 -14.46875 C 9.835938 -14.46875 10.019531 -14.410156 10.1875 -14.296875 C 10.363281 -14.191406 10.453125 -14.050781 10.453125 -13.875 C 10.453125 -12.820312 10.492188 -11.238281 10.578125 -9.125 C 10.679688 -7.164062 10.734375 -5.640625 10.734375 -4.546875 L 10.71875 -3.390625 L 10.671875 -2.21875 C 10.671875 -2.039062 10.691406 -1.78125 10.734375 -1.4375 L 10.796875 -0.65625 C 10.816406 -0.53125 10.828125 -0.425781 10.828125 -0.34375 C 10.835938 -0.269531 10.84375 -0.226562 10.84375 -0.21875 C 10.914062 -0.03125 10.953125 0.109375 10.953125 0.203125 C 10.953125 0.453125 10.878906 0.671875 10.734375 0.859375 C 10.585938 1.046875 10.410156 1.140625 10.203125 1.140625 Z M 10.203125 1.140625 "/></g></g></g><g fill="#000000" fill-opacity="1"><g transform="translate(262.276994, 155.030087)"><g><path d="M 3.921875 0.421875 C 3.535156 0.421875 3.179688 0.296875 2.859375 0.046875 C 2.535156 -0.191406 2.269531 -0.515625 2.0625 -0.921875 C 1.644531 -1.816406 1.382812 -2.789062 1.28125 -3.84375 C 1.144531 -4.84375 1.078125 -5.804688 1.078125 -6.734375 C 1.078125 -6.910156 1.082031 -7.054688 1.09375 -7.171875 L 1.09375 -7.5625 C 1.09375 -7.632812 1.085938 -7.671875 1.078125 -7.671875 L 1.078125 -8.078125 L 1.09375 -9.609375 C 1.113281 -10.078125 1.175781 -10.828125 1.28125 -11.859375 C 1.351562 -12.554688 1.519531 -13.238281 1.78125 -13.90625 C 1.882812 -14.195312 2.015625 -14.421875 2.171875 -14.578125 C 2.335938 -14.734375 2.523438 -14.8125 2.734375 -14.8125 C 3.316406 -14.8125 3.84375 -14.703125 4.3125 -14.484375 C 4.78125 -14.273438 5.175781 -13.976562 5.5 -13.59375 C 5.789062 -13.226562 6.039062 -12.773438 6.25 -12.234375 C 6.457031 -11.703125 6.601562 -11.132812 6.6875 -10.53125 C 6.769531 -9.914062 6.8125 -9.265625 6.8125 -8.578125 L 6.8125 -8.40625 C 6.8125 -7.945312 6.820312 -7.535156 6.84375 -7.171875 L 6.859375 -5.921875 C 6.859375 -1.691406 5.878906 0.421875 3.921875 0.421875 Z M 3.828125 -0.5 C 4.085938 -0.5 4.328125 -0.601562 4.546875 -0.8125 C 4.773438 -1.03125 4.945312 -1.320312 5.0625 -1.6875 C 5.34375 -2.4375 5.507812 -3.242188 5.5625 -4.109375 C 5.632812 -4.859375 5.671875 -5.503906 5.671875 -6.046875 C 5.671875 -6.710938 5.617188 -7.578125 5.515625 -8.640625 C 5.429688 -9.773438 5.390625 -10.617188 5.390625 -11.171875 L 5.390625 -11.578125 C 5.359375 -12.128906 5.171875 -12.609375 4.828125 -13.015625 C 4.484375 -13.429688 4.0625 -13.640625 3.5625 -13.640625 C 3.0625 -13.640625 2.734375 -13.351562 2.578125 -12.78125 C 2.429688 -12.320312 2.359375 -11.734375 2.359375 -11.015625 C 2.359375 -10.742188 2.363281 -10.507812 2.375 -10.3125 L 2.375 -9.71875 L 2.328125 -8.71875 C 2.296875 -8.40625 2.28125 -8.066406 2.28125 -7.703125 C 2.28125 -6.910156 2.304688 -6.125 2.359375 -5.34375 C 2.410156 -4.25 2.554688 -3.179688 2.796875 -2.140625 C 3.023438 -1.046875 3.367188 -0.5 3.828125 -0.5 Z M 3.828125 -0.5 "/></g></g></g><g fill="#000000" fill-opacity="1"><g transform="translate(275.123546, 155.030087)"><g/></g></g><g fill="#000000" fill-opacity="1"><g transform="translate(284.076796, 155.030087)"><g><path d="M 4.296875 0.3125 C 3.972656 0.3125 3.628906 0.257812 3.265625 0.15625 C 2.910156 0.0625 2.632812 -0.0390625 2.4375 -0.15625 C 1.457031 -0.78125 0.96875 -2.503906 0.96875 -5.328125 L 0.96875 -7.125 C 0.96875 -7.71875 0.972656 -8.242188 0.984375 -8.703125 C 1.003906 -9.160156 1.035156 -9.660156 1.078125 -10.203125 C 1.117188 -10.773438 1.179688 -11.238281 1.265625 -11.59375 C 1.359375 -11.957031 1.507812 -12.367188 1.71875 -12.828125 C 1.894531 -13.253906 2.109375 -13.582031 2.359375 -13.8125 C 2.617188 -14.050781 2.953125 -14.25 3.359375 -14.40625 C 3.734375 -14.570312 4.191406 -14.65625 4.734375 -14.65625 C 4.953125 -14.65625 5.117188 -14.601562 5.234375 -14.5 C 5.347656 -14.394531 5.40625 -14.265625 5.40625 -14.109375 C 5.40625 -13.953125 5.359375 -13.816406 5.265625 -13.703125 C 5.171875 -13.585938 5.054688 -13.523438 4.921875 -13.515625 L 3.890625 -13.515625 C 3.597656 -13.515625 3.34375 -13.328125 3.125 -12.953125 C 2.90625 -12.585938 2.75 -12.113281 2.65625 -11.53125 C 2.46875 -10.445312 2.375 -9.566406 2.375 -8.890625 L 2.375 -8.78125 L 2.328125 -6.671875 C 2.296875 -6.035156 2.28125 -5.320312 2.28125 -4.53125 C 2.28125 -3.976562 2.304688 -3.523438 2.359375 -3.171875 C 2.429688 -2.640625 2.554688 -2.195312 2.734375 -1.84375 C 2.898438 -1.445312 3.195312 -1.160156 3.625 -0.984375 C 3.84375 -0.898438 4.085938 -0.859375 4.359375 -0.859375 C 4.515625 -0.859375 4.675781 -0.914062 4.84375 -1.03125 C 5.03125 -1.03125 5.1875 -0.988281 5.3125 -0.90625 C 5.4375 -0.832031 5.5 -0.710938 5.5 -0.546875 C 5.5 0.0234375 5.097656 0.3125 4.296875 0.3125 Z M 4.296875 0.3125 "/></g></g></g><g fill="#000000" fill-opacity="1"><g transform="translate(295.141665, 155.030087)"><g><path d="M 5.671875 0.203125 C 5.335938 0.203125 5.085938 0.148438 4.921875 0.046875 C 4.765625 -0.0546875 4.6875 -0.25 4.6875 -0.53125 C 4.6875 -0.96875 4.613281 -1.710938 4.46875 -2.765625 L 4.375 -3.234375 L 2.203125 -3.5625 C 2.109375 -3.226562 1.984375 -2.546875 1.828125 -1.515625 C 1.734375 -0.796875 1.59375 -0.320312 1.40625 -0.09375 C 1.300781 0.0390625 1.15625 0.109375 0.96875 0.109375 C 0.789062 0.109375 0.628906 0.0546875 0.484375 -0.046875 C 0.335938 -0.160156 0.265625 -0.300781 0.265625 -0.46875 L 0.3125 -0.578125 L 0.328125 -0.65625 C 1.296875 -4.425781 2.03125 -8.144531 2.53125 -11.8125 C 2.53125 -11.875 2.535156 -11.972656 2.546875 -12.109375 C 2.566406 -12.242188 2.582031 -12.445312 2.59375 -12.71875 C 2.632812 -13.257812 2.679688 -13.691406 2.734375 -14.015625 C 2.785156 -14.335938 2.867188 -14.578125 2.984375 -14.734375 L 3.734375 -14.734375 C 3.941406 -14.734375 4.117188 -14.6875 4.265625 -14.59375 C 4.410156 -14.5 4.484375 -14.363281 4.484375 -14.1875 C 4.484375 -13.070312 4.640625 -11.414062 4.953125 -9.21875 C 5.242188 -6.957031 5.390625 -5.375 5.390625 -4.46875 C 5.390625 -4.375 5.425781 -4.144531 5.5 -3.78125 C 5.570312 -3.445312 5.609375 -3.226562 5.609375 -3.125 C 5.609375 -3.019531 5.679688 -2.578125 5.828125 -1.796875 C 5.960938 -1.097656 6.03125 -0.644531 6.03125 -0.4375 L 6.03125 -0.421875 C 6.03125 -0.0976562 5.910156 0.109375 5.671875 0.203125 Z M 4.21875 -4.03125 C 4.175781 -4.25 4.15625 -4.519531 4.15625 -4.84375 C 4.15625 -6.15625 4.039062 -7.84375 3.8125 -9.90625 L 3.59375 -12.1875 C 2.957031 -8.738281 2.519531 -6.132812 2.28125 -4.375 C 2.507812 -4.226562 3.15625 -4.113281 4.21875 -4.03125 Z M 4.21875 -4.03125 "/></g></g></g><g fill="#000000" fill-opacity="1"><g transform="translate(306.646455, 155.030087)"><g><path d="M 7.34375 0.0625 C 7.164062 0.0625 7.03125 0.015625 6.9375 -0.078125 C 6.851562 -0.171875 6.789062 -0.335938 6.75 -0.578125 L 6.625 -0.984375 L 6.625 -1.09375 C 6.625 -1.582031 6.117188 -3.234375 5.109375 -6.046875 C 4.109375 -8.867188 3.320312 -10.953125 2.75 -12.296875 L 2.75 -1.234375 L 2.84375 -1.078125 C 2.851562 -1.046875 2.878906 -0.992188 2.921875 -0.921875 C 2.960938 -0.847656 2.984375 -0.773438 2.984375 -0.703125 C 2.984375 -0.515625 2.914062 -0.351562 2.78125 -0.21875 C 2.65625 -0.0820312 2.5 -0.015625 2.3125 -0.015625 C 1.84375 -0.015625 1.609375 -0.460938 1.609375 -1.359375 L 1.578125 -5.125 C 1.566406 -6.25 1.5625 -7.507812 1.5625 -8.90625 C 1.5625 -9.375 1.582031 -10.054688 1.625 -10.953125 C 1.664062 -11.878906 1.6875 -12.5625 1.6875 -13 C 1.6875 -13.6875 1.953125 -14.226562 2.484375 -14.625 L 2.484375 -14.5 C 2.578125 -14.53125 2.632812 -14.546875 2.65625 -14.546875 C 3 -14.546875 3.425781 -13.957031 3.9375 -12.78125 C 4.34375 -11.84375 4.710938 -10.851562 5.046875 -9.8125 C 5.378906 -8.769531 5.816406 -7.289062 6.359375 -5.375 L 6.578125 -4.578125 C 6.910156 -3.390625 7.164062 -2.539062 7.34375 -2.03125 C 7.632812 -5.175781 7.78125 -8.898438 7.78125 -13.203125 L 7.78125 -13.484375 C 7.769531 -13.578125 7.765625 -13.671875 7.765625 -13.765625 C 7.765625 -14.210938 7.941406 -14.4375 8.296875 -14.4375 C 8.503906 -14.4375 8.660156 -14.351562 8.765625 -14.1875 C 8.878906 -14.03125 8.9375 -13.828125 8.9375 -13.578125 L 8.9375 -11.921875 C 8.90625 -9.660156 8.816406 -7.207031 8.671875 -4.5625 C 8.523438 -1.925781 8.347656 -0.441406 8.140625 -0.109375 C 7.710938 0.00390625 7.445312 0.0625 7.34375 0.0625 Z M 7.34375 0.0625 "/></g></g></g><g fill="#000000" fill-opacity="1"><g transform="translate(322.110535, 155.030087)"><g><path d="M 2.4375 -0.015625 C 1.164062 -0.015625 0.53125 -0.238281 0.53125 -0.6875 C 0.53125 -1.03125 0.753906 -1.203125 1.203125 -1.203125 L 1.453125 -1.203125 L 1.671875 -1.1875 C 1.785156 -1.1875 1.863281 -1.222656 1.90625 -1.296875 C 1.957031 -1.367188 1.984375 -1.5 1.984375 -1.6875 C 1.984375 -1.9375 1.96875 -2.328125 1.9375 -2.859375 C 1.894531 -3.210938 1.84375 -3.84375 1.78125 -4.75 C 1.644531 -7 1.578125 -8.691406 1.578125 -9.828125 C 1.578125 -10.242188 1.585938 -10.617188 1.609375 -10.953125 L 1.625 -12.078125 C 1.625 -12.554688 1.601562 -12.957031 1.5625 -13.28125 C 1.320312 -13.226562 1.15625 -13.203125 1.0625 -13.203125 C 0.707031 -13.203125 0.53125 -13.378906 0.53125 -13.734375 C 0.53125 -13.898438 0.640625 -14.050781 0.859375 -14.1875 C 1.078125 -14.320312 1.351562 -14.414062 1.6875 -14.46875 C 2.28125 -14.59375 2.800781 -14.65625 3.25 -14.65625 C 3.425781 -14.65625 3.578125 -14.59375 3.703125 -14.46875 C 3.828125 -14.34375 3.890625 -14.195312 3.890625 -14.03125 C 3.890625 -13.875 3.84375 -13.734375 3.75 -13.609375 C 3.65625 -13.492188 3.535156 -13.4375 3.390625 -13.4375 C 3.296875 -13.4375 3.222656 -13.445312 3.171875 -13.46875 L 2.984375 -13.46875 C 2.835938 -13.46875 2.734375 -13.429688 2.671875 -13.359375 C 2.609375 -13.296875 2.578125 -13.175781 2.578125 -13 C 2.578125 -11.582031 2.664062 -9.441406 2.84375 -6.578125 C 2.863281 -6.046875 2.921875 -5.269531 3.015625 -4.25 C 3.085938 -3.570312 3.125 -2.878906 3.125 -2.171875 L 3.125 -1.34375 C 3.207031 -1.351562 3.351562 -1.359375 3.5625 -1.359375 C 4.175781 -1.359375 4.484375 -1.101562 4.484375 -0.59375 L 4.484375 -0.46875 L 3.9375 -0.09375 C 3.925781 -0.09375 3.878906 -0.0859375 3.796875 -0.078125 C 3.710938 -0.0664062 3.5625 -0.0625 3.34375 -0.0625 C 2.875 -0.03125 2.570312 -0.015625 2.4375 -0.015625 Z M 2.4375 -0.015625 "/></g></g></g><g fill="#000000" fill-opacity="1"><g transform="translate(332.009616, 155.030087)"><g><path d="M 7.34375 0.0625 C 7.164062 0.0625 7.03125 0.015625 6.9375 -0.078125 C 6.851562 -0.171875 6.789062 -0.335938 6.75 -0.578125 L 6.625 -0.984375 L 6.625 -1.09375 C 6.625 -1.582031 6.117188 -3.234375 5.109375 -6.046875 C 4.109375 -8.867188 3.320312 -10.953125 2.75 -12.296875 L 2.75 -1.234375 L 2.84375 -1.078125 C 2.851562 -1.046875 2.878906 -0.992188 2.921875 -0.921875 C 2.960938 -0.847656 2.984375 -0.773438 2.984375 -0.703125 C 2.984375 -0.515625 2.914062 -0.351562 2.78125 -0.21875 C 2.65625 -0.0820312 2.5 -0.015625 2.3125 -0.015625 C 1.84375 -0.015625 1.609375 -0.460938 1.609375 -1.359375 L 1.578125 -5.125 C 1.566406 -6.25 1.5625 -7.507812 1.5625 -8.90625 C 1.5625 -9.375 1.582031 -10.054688 1.625 -10.953125 C 1.664062 -11.878906 1.6875 -12.5625 1.6875 -13 C 1.6875 -13.6875 1.953125 -14.226562 2.484375 -14.625 L 2.484375 -14.5 C 2.578125 -14.53125 2.632812 -14.546875 2.65625 -14.546875 C 3 -14.546875 3.425781 -13.957031 3.9375 -12.78125 C 4.34375 -11.84375 4.710938 -10.851562 5.046875 -9.8125 C 5.378906 -8.769531 5.816406 -7.289062 6.359375 -5.375 L 6.578125 -4.578125 C 6.910156 -3.390625 7.164062 -2.539062 7.34375 -2.03125 C 7.632812 -5.175781 7.78125 -8.898438 7.78125 -13.203125 L 7.78125 -13.484375 C 7.769531 -13.578125 7.765625 -13.671875 7.765625 -13.765625 C 7.765625 -14.210938 7.941406 -14.4375 8.296875 -14.4375 C 8.503906 -14.4375 8.660156 -14.351562 8.765625 -14.1875 C 8.878906 -14.03125 8.9375 -13.828125 8.9375 -13.578125 L 8.9375 -11.921875 C 8.90625 -9.660156 8.816406 -7.207031 8.671875 -4.5625 C 8.523438 -1.925781 8.347656 -0.441406 8.140625 -0.109375 C 7.710938 0.00390625 7.445312 0.0625 7.34375 0.0625 Z M 7.34375 0.0625 "/></g></g></g><g fill="#000000" fill-opacity="1"><g transform="translate(347.473696, 155.030087)"><g><path d="M 3.921875 0.421875 C 3.535156 0.421875 3.179688 0.296875 2.859375 0.046875 C 2.535156 -0.191406 2.269531 -0.515625 2.0625 -0.921875 C 1.644531 -1.816406 1.382812 -2.789062 1.28125 -3.84375 C 1.144531 -4.84375 1.078125 -5.804688 1.078125 -6.734375 C 1.078125 -6.910156 1.082031 -7.054688 1.09375 -7.171875 L 1.09375 -7.5625 C 1.09375 -7.632812 1.085938 -7.671875 1.078125 -7.671875 L 1.078125 -8.078125 L 1.09375 -9.609375 C 1.113281 -10.078125 1.175781 -10.828125 1.28125 -11.859375 C 1.351562 -12.554688 1.519531 -13.238281 1.78125 -13.90625 C 1.882812 -14.195312 2.015625 -14.421875 2.171875 -14.578125 C 2.335938 -14.734375 2.523438 -14.8125 2.734375 -14.8125 C 3.316406 -14.8125 3.84375 -14.703125 4.3125 -14.484375 C 4.78125 -14.273438 5.175781 -13.976562 5.5 -13.59375 C 5.789062 -13.226562 6.039062 -12.773438 6.25 -12.234375 C 6.457031 -11.703125 6.601562 -11.132812 6.6875 -10.53125 C 6.769531 -9.914062 6.8125 -9.265625 6.8125 -8.578125 L 6.8125 -8.40625 C 6.8125 -7.945312 6.820312 -7.535156 6.84375 -7.171875 L 6.859375 -5.921875 C 6.859375 -1.691406 5.878906 0.421875 3.921875 0.421875 Z M 3.828125 -0.5 C 4.085938 -0.5 4.328125 -0.601562 4.546875 -0.8125 C 4.773438 -1.03125 4.945312 -1.320312 5.0625 -1.6875 C 5.34375 -2.4375 5.507812 -3.242188 5.5625 -4.109375 C 5.632812 -4.859375 5.671875 -5.503906 5.671875 -6.046875 C 5.671875 -6.710938 5.617188 -7.578125 5.515625 -8.640625 C 5.429688 -9.773438 5.390625 -10.617188 5.390625 -11.171875 L 5.390625 -11.578125 C 5.359375 -12.128906 5.171875 -12.609375 4.828125 -13.015625 C 4.484375 -13.429688 4.0625 -13.640625 3.5625 -13.640625 C 3.0625 -13.640625 2.734375 -13.351562 2.578125 -12.78125 C 2.429688 -12.320312 2.359375 -11.734375 2.359375 -11.015625 C 2.359375 -10.742188 2.363281 -10.507812 2.375 -10.3125 L 2.375 -9.71875 L 2.328125 -8.71875 C 2.296875 -8.40625 2.28125 -8.066406 2.28125 -7.703125 C 2.28125 -6.910156 2.304688 -6.125 2.359375 -5.34375 C 2.410156 -4.25 2.554688 -3.179688 2.796875 -2.140625 C 3.023438 -1.046875 3.367188 -0.5 3.828125 -0.5 Z M 3.828125 -0.5 "/></g></g></g></svg>